<?xml version="1.0" standalone="no"?>
<!DOCTYPE svg PUBLIC "-//W3C//DTD SVG 1.1//EN" "http://www.w3.org/Graphics/SVG/1.1/DTD/svg11.dtd" >
<svg xmlns="http://www.w3.org/2000/svg" xmlns:xlink="http://www.w3.org/1999/xlink" version="1.1">
<metadata>
Created by FontForge 20150913 at Wed Apr 13 08:27:59 2016
 By Jimmy Wärting
Copyright (c) 1990, 1992 Adobe Systems Incorporated.  All Rights Reserved.
</metadata>
<defs>
<font id="DINEngschrift" horiz-adv-x="370" >
  <font-face 
    font-family="DINSchrift"
    font-weight="500"
    font-stretch="normal"
    units-per-em="1000"
    panose-1="0 0 0 0 0 0 0 0 0 0"
    ascent="800"
    descent="-200"
    x-height="507"
    cap-height="712"
    bbox="-165 -250 1000 937"
    underline-thickness="50"
    underline-position="-100"
    stemh="102"
    stemv="102"
    unicode-range="U+0020-FB02"
  />
<missing-glyph horiz-adv-x="186" 
 />
    <glyph glyph-name=".notdef" horiz-adv-x="186" 
 />
    <glyph glyph-name="space" unicode=" " horiz-adv-x="186" 
 />
    <glyph glyph-name="exclam" unicode="!" horiz-adv-x="240" 
d="M95 176l-39 536h128l-39 -536h-50zM69 0v102h102v-102h-102z" />
    <glyph glyph-name="quotedbl" unicode="&#x22;" horiz-adv-x="278" 
d="M33 536v176h80v-176h-80zM165 536v176h80v-176h-80z" />
    <glyph glyph-name="numbersign" unicode="#" horiz-adv-x="372" 
d="M180 0l29 215h-84l-29 -215h-68l29 215h-51v60h59l22 162h-50v60h58l29 215h68l-29 -215h84l29 215h68l-29 -215h51v-60h-59l-22 -162h50v-60h-58l-29 -215h-68zM217 275l22 162h-84l-22 -162h84z" />
    <glyph glyph-name="dollar" unicode="$" horiz-adv-x="372" 
d="M161 437v179c-34 -13 -43 -50 -43 -92c0 -48 4 -69 43 -87zM212 304v-208c43 10 47 48 47 106c0 68 -7 85 -47 102zM161 -90v84c-87 10 -150 79 -150 167v40h102v-36c0 -31 14 -61 48 -69v230l-34 14c-88 36 -111 94 -111 183c0 101 48 182 145 195v75h51v-75
c91 -11 149 -86 149 -161v-50h-102v23c0 42 -13 75 -47 86v-201l42 -17c90 -34 107 -91 107 -195c0 -114 -38 -198 -149 -209v-84h-51z" />
    <glyph glyph-name="percent" unicode="%" horiz-adv-x="352" 
d="M94 555c13 0 25 12 25 26v51c0 14 -12 26 -25 26s-25 -12 -25 -26v-51c0 -14 12 -26 25 -26zM94 495c-52 0 -85 31 -85 76v65c0 50 33 82 85 82s85 -32 85 -82v-65c0 -45 -33 -76 -85 -76zM233 131v-51c0 -14 12 -26 25 -26s25 12 25 26v51c0 14 -12 26 -25 26
s-25 -12 -25 -26zM258 -6c-52 0 -85 31 -85 76v65c0 50 33 82 85 82s85 -32 85 -82v-65c0 -45 -33 -76 -85 -76zM21 0l244 712h66l-244 -712h-66z" />
    <glyph glyph-name="ampersand" unicode="&#x26;" horiz-adv-x="481" 
d="M353 0l-34 54c-40 -40 -82 -60 -136 -60c-81 0 -147 66 -147 165c0 78 42 135 98 185c-36 51 -62 104 -62 164c0 76 47 138 139 138c87 0 135 -59 135 -129c0 -66 -48 -129 -104 -179c25 -39 59 -99 94 -149l55 75l63 -44l-76 -98l77 -122h-102zM126 164
c0 -49 32 -90 76 -90c31 0 61 24 76 43l-98 156c-30 -31 -54 -65 -54 -109zM162 506c0 -31 17 -67 39 -103c25 24 61 62 61 112c0 25 -19 51 -49 51c-31 0 -51 -29 -51 -60z" />
    <glyph glyph-name="quoteright" unicode="&#x2019;" horiz-adv-x="186" 
d="M42 536v176h102v-102z" />
    <glyph glyph-name="parenleft" unicode="(" horiz-adv-x="222" 
d="M169 712h34c-39 -137 -51 -288 -51 -434c0 -135 19 -262 51 -378h-34c-80 116 -119 277 -119 406c0 137 45 295 119 406z" />
    <glyph glyph-name="parenright" unicode=")" horiz-adv-x="222" 
d="M53 -100h-34c39 137 51 288 51 434c0 135 -19 262 -51 378h34c80 -116 119 -277 119 -406c0 -137 -45 -295 -119 -406z" />
    <glyph glyph-name="asterisk" unicode="*" 
d="M31 604l28 52l98 -60l-4 116h64l-4 -116l98 60l28 -52l-100 -56l100 -55l-28 -53l-98 60l4 -116h-64l4 116l-98 -60l-28 53l100 55z" />
    <glyph glyph-name="plus" unicode="+" horiz-adv-x="600" 
d="M260 293v213h80v-213h213v-80h-213v-213h-80v213h-213v80h213z" />
    <glyph glyph-name="comma" unicode="," horiz-adv-x="186" 
d="M42 -74v176h102v-102z" />
    <glyph glyph-name="hyphen" unicode="-" horiz-adv-x="389" 
d="M44 226v102h301v-102h-301z" />
    <glyph glyph-name="period" unicode="." horiz-adv-x="186" 
d="M42 0v102h102v-102h-102z" />
    <glyph glyph-name="slash" unicode="/" horiz-adv-x="222" 
d="M5 -6l132 724h80l-132 -724h-80z" />
    <glyph glyph-name="zero" unicode="0" horiz-adv-x="372" 
d="M34 147v418c0 95 71 153 152 153s152 -58 152 -153v-418c0 -95 -71 -153 -152 -153s-152 58 -152 153zM136 565v-418c0 -29 21 -51 50 -51s50 22 50 51v418c0 29 -21 51 -50 51s-50 -22 -50 -51z" />
    <glyph glyph-name="one" unicode="1" horiz-adv-x="372" 
d="M155 0v604l-102 -75v108l102 75h102v-712h-102z" />
    <glyph glyph-name="two" unicode="2" horiz-adv-x="372" 
d="M34 0v96l184 347c18 35 18 55 18 94c0 36 0 79 -50 79c-30 0 -50 -18 -50 -51v-58h-102v56c0 85 68 155 153 155c106 0 151 -84 151 -179c0 -69 -2 -87 -34 -148l-150 -289h184v-102h-304z" />
    <glyph glyph-name="three" unicode="3" horiz-adv-x="372" 
d="M155 322v90c61 0 81 9 81 62v92c0 29 -19 50 -50 50c-36 0 -50 -29 -50 -50v-58h-102v59c0 84 70 151 154 151c55 0 93 -28 111 -50c27 -32 39 -60 39 -151c0 -98 -5 -114 -63 -149c63 -39 63 -62 63 -163c0 -94 -6 -115 -27 -146c-25 -37 -64 -65 -126 -65
c-65 0 -151 40 -151 152v58h102v-53c0 -32 19 -55 50 -55s50 22 50 57v102c0 55 -15 67 -81 67z" />
    <glyph glyph-name="four" unicode="4" horiz-adv-x="372" 
d="M212 0v106h-203v96l147 510h108l-153 -510h101v203h102v-203h49v-96h-49v-106h-102z" />
    <glyph glyph-name="five" unicode="5" horiz-adv-x="372" 
d="M338 712v-96h-202v-192c19 18 49 33 85 33c69 0 117 -44 117 -126v-184c0 -95 -71 -153 -152 -153s-152 58 -152 153v30h102v-26c0 -35 22 -55 52 -55s48 20 48 53v167c0 28 -20 51 -48 51c-35 0 -46 -27 -52 -39h-90v384h292z" />
    <glyph glyph-name="six" unicode="6" horiz-adv-x="372" 
d="M301 712l-116 -299l2 -2c7 5 21 9 43 9c36 0 69 -20 86 -46c18 -28 22 -53 22 -166c0 -93 -4 -113 -23 -145c-26 -44 -73 -69 -129 -69c-55 0 -101 26 -128 69c-20 32 -24 52 -24 145c0 88 5 108 19 146l134 358h114zM236 147v132c0 31 -24 51 -50 51s-50 -20 -50 -51
v-132c0 -31 24 -51 50 -51s50 20 50 51z" />
    <glyph glyph-name="seven" unicode="7" horiz-adv-x="372" 
d="M57 0l179 616h-112v-82h-90v178h304v-102l-173 -610h-108z" />
    <glyph glyph-name="eight" unicode="8" horiz-adv-x="372" 
d="M236 462v104c0 28 -24 50 -50 50s-50 -22 -50 -50v-104c0 -28 24 -50 50 -50s50 22 50 50zM34 526c0 78 10 103 37 137c27 35 69 55 115 55s88 -20 115 -55c27 -34 37 -59 37 -137c0 -84 -2 -113 -51 -152c49 -37 51 -67 51 -175c0 -87 -7 -111 -28 -142
c-23 -35 -65 -63 -124 -63s-101 28 -124 63c-21 31 -28 55 -28 142c0 108 2 138 51 175c-49 39 -51 68 -51 152zM236 146v140c0 28 -24 50 -50 50s-50 -22 -50 -50v-140c0 -28 24 -50 50 -50s50 22 50 50z" />
    <glyph glyph-name="nine" unicode="9" horiz-adv-x="372" 
d="M71 0l116 299l-2 2c-7 -5 -21 -9 -43 -9c-36 0 -69 20 -86 46c-18 28 -22 53 -22 166c0 93 4 113 23 145c26 44 73 69 129 69c55 0 101 -26 128 -69c20 -32 24 -52 24 -145c0 -88 -5 -108 -19 -146l-134 -358h-114zM136 565v-132c0 -31 24 -51 50 -51s50 20 50 51v132
c0 31 -24 51 -50 51s-50 -20 -50 -51z" />
    <glyph glyph-name="colon" unicode=":" horiz-adv-x="186" 
d="M42 0v102h102v-102h-102zM42 227v102h102v-102h-102z" />
    <glyph glyph-name="semicolon" unicode=";" horiz-adv-x="186" 
d="M42 -74v176h102v-102zM42 227v102h102v-102h-102z" />
    <glyph glyph-name="less" unicode="&#x3c;" horiz-adv-x="600" 
d="M553 514v-80l-397 -181l397 -181v-80l-506 231v60z" />
    <glyph glyph-name="equal" unicode="=" horiz-adv-x="600" 
d="M47 313v80h506v-80h-506zM47 113v80h506v-80h-506z" />
    <glyph glyph-name="greater" unicode="&#x3e;" horiz-adv-x="600" 
d="M47 -8v80l397 181l-397 181v80l506 -231v-60z" />
    <glyph glyph-name="question" unicode="?" 
d="M32 507v59c0 84 69 152 154 152c49 0 91 -21 118 -57s34 -61 34 -122c0 -68 -3 -92 -16 -114l-69 -118c-9 -16 -17 -33 -17 -51v-80h-102v93c0 29 10 56 25 81l64 104c10 17 13 38 13 58v53c0 28 -22 51 -50 51c-24 0 -52 -18 -52 -51v-58h-102zM134 0v102h102v-102h-102
z" />
    <glyph glyph-name="at" unicode="@" horiz-adv-x="800" 
d="M513 410c0 47 -26 83 -74 83c-87 0 -154 -111 -154 -195c0 -56 33 -87 83 -87c76 0 145 119 145 199zM639 548l-87 -275c-6 -18 -10 -36 -10 -45c0 -17 6 -29 23 -29c64 0 136 119 136 215c0 140 -126 238 -268 238c-168 0 -302 -143 -302 -299c0 -163 134 -293 307 -293
c97 0 196 48 243 105h77c-65 -107 -192 -171 -328 -171c-209 0 -376 155 -376 364c0 200 172 360 378 360c188 0 346 -124 346 -299c0 -167 -143 -280 -228 -280c-45 0 -73 21 -78 63h-2c-29 -31 -60 -63 -122 -63c-86 0 -143 69 -143 152c0 132 94 274 234 274
c47 0 95 -24 115 -78h2l20 61h63z" />
    <glyph glyph-name="A" unicode="A" horiz-adv-x="407" 
d="M254 249l-50 258h-2l-50 -258h102zM2 0l159 712h85l159 -712h-102l-30 153h-139l-30 -153h-102z" />
    <glyph glyph-name="B" unicode="B" horiz-adv-x="426" 
d="M48 0v712h149c132 0 181 -87 181 -180v-26c0 -76 -25 -104 -70 -132c48 -23 70 -66 70 -140v-40c0 -124 -59 -194 -191 -194h-139zM150 330v-228h44c82 0 88 50 88 120c0 71 -13 108 -87 108h-45zM150 616v-196h46c68 0 86 35 86 100c0 63 -23 96 -90 96h-42z" />
    <glyph glyph-name="C" unicode="C" horiz-adv-x="407" 
d="M372 203v-44c0 -88 -71 -165 -162 -165c-78 0 -168 38 -168 168v392c0 93 67 164 166 164c94 0 164 -71 164 -170v-40h-102v34c0 40 -24 74 -63 74c-51 0 -63 -35 -63 -83v-364c0 -41 16 -73 62 -73c28 0 64 16 64 72v35h102z" />
    <glyph glyph-name="D" unicode="D" horiz-adv-x="426" 
d="M48 0v712h151c115 0 179 -69 179 -184v-333c0 -132 -68 -195 -188 -195h-142zM150 616v-520h47c57 0 79 28 79 89v343c0 56 -19 88 -79 88h-47z" />
    <glyph glyph-name="E" unicode="E" 
d="M48 0v712h304v-96h-202v-209h176v-96h-176v-209h202v-102h-304z" />
    <glyph glyph-name="F" unicode="F" 
d="M48 0v712h304v-96h-202v-216h176v-96h-176v-304h-102z" />
    <glyph glyph-name="G" unicode="G" horiz-adv-x="426" 
d="M42 168v376c0 116 88 174 171 174s171 -58 171 -174v-36h-102v36c0 49 -32 72 -69 72s-69 -23 -69 -72v-376c0 -49 32 -72 69 -72s69 23 69 72v134h-81v90h183v-224c0 -116 -88 -174 -171 -174s-171 58 -171 174z" />
    <glyph glyph-name="H" unicode="H" horiz-adv-x="426" 
d="M48 0v712h102v-305h126v305h102v-712h-102v317h-126v-317h-102z" />
    <glyph glyph-name="I" unicode="I" horiz-adv-x="204" 
d="M51 0v712h102v-712h-102z" />
    <glyph glyph-name="J" unicode="J" horiz-adv-x="333" 
d="M285 712v-544c0 -94 -65 -174 -174 -174c-65 0 -108 36 -133 64l80 64c14 -14 35 -26 56 -26c25 0 69 15 69 86v530h102z" />
    <glyph glyph-name="K" unicode="K" horiz-adv-x="426" 
d="M48 0v712h102v-325h2l149 325h102l-139 -285l165 -427h-108l-116 316l-55 -103v-213h-102z" />
    <glyph glyph-name="L" unicode="L" 
d="M48 0v712h102v-610h202v-102h-304z" />
    <glyph glyph-name="M" unicode="M" horiz-adv-x="556" 
d="M48 0v712h98l131 -377h2l130 377h99v-712h-102v433h-2l-101 -306h-51l-100 306h-2v-433h-102z" />
    <glyph glyph-name="N" unicode="N" horiz-adv-x="444" 
d="M44 0v712h98l154 -429h2v429h102v-712h-96l-156 428h-2v-428h-102z" />
    <glyph glyph-name="O" unicode="O" horiz-adv-x="426" 
d="M42 168v376c0 116 88 174 171 174s171 -58 171 -174v-376c0 -116 -88 -174 -171 -174s-171 58 -171 174zM144 544v-376c0 -49 32 -72 69 -72s69 23 69 72v376c0 49 -32 72 -69 72s-69 -23 -69 -72z" />
    <glyph glyph-name="P" unicode="P" horiz-adv-x="407" 
d="M48 0v712h153c56 0 97 -13 132 -50s46 -82 46 -167c0 -62 -5 -104 -29 -143c-28 -46 -73 -74 -148 -74h-52v-278h-102zM150 616v-242h49c83 0 84 49 84 120c0 67 0 122 -80 122h-53z" />
    <glyph glyph-name="Q" unicode="Q" horiz-adv-x="426" 
d="M144 544v-376c0 -49 32 -72 69 -72c8 0 15 1 22 4l-46 37l52 62l41 -33v2v376c0 49 -32 72 -69 72s-69 -23 -69 -72zM42 168v376c0 116 88 174 171 174s171 -58 171 -174v-376c0 -28 -5 -52 -15 -73l63 -51l-52 -62l-60 49c-31 -25 -69 -37 -107 -37
c-83 0 -171 58 -171 174z" />
    <glyph glyph-name="R" unicode="R" horiz-adv-x="426" 
d="M150 616v-222h58c71 0 82 40 82 111c0 72 -12 111 -87 111h-53zM48 0v712h164c121 0 180 -71 180 -209c0 -82 -23 -142 -88 -178l110 -325h-108l-95 304h-61v-304h-102z" />
    <glyph glyph-name="S" unicode="S" horiz-adv-x="406" 
d="M378 557v-50h-102v23c0 47 -20 86 -72 86c-56 0 -69 -45 -69 -92c0 -55 5 -74 58 -95l78 -31c90 -34 107 -91 107 -195c0 -120 -44 -209 -176 -209c-99 0 -174 73 -174 169v38h102v-32c0 -37 20 -73 72 -73c69 0 74 41 74 106c0 76 -9 88 -59 108l-73 30
c-88 36 -111 94 -111 183c0 108 58 195 175 195c102 0 170 -82 170 -161z" />
    <glyph glyph-name="T" unicode="T" horiz-adv-x="332" 
d="M115 0v616h-118v96h338v-96h-118v-616h-102z" />
    <glyph glyph-name="U" unicode="U" horiz-adv-x="426" 
d="M378 712v-552c0 -93 -74 -166 -165 -166s-165 73 -165 166v552h102v-542c0 -50 27 -74 63 -74s63 24 63 74v542h102z" />
    <glyph glyph-name="V" unicode="V" horiz-adv-x="407" 
d="M394 712l-146 -712h-90l-145 712h108l81 -497h2l82 497h108z" />
    <glyph glyph-name="W" unicode="W" horiz-adv-x="593" 
d="M577 712l-106 -712h-96l-78 462h-2l-77 -462h-96l-106 712h108l51 -452h2l80 452h78l83 -463h2l49 463h108z" />
    <glyph glyph-name="X" unicode="X" horiz-adv-x="389" 
d="M-2 0l144 373l-133 339h108l77 -211l78 211h108l-136 -339l147 -373h-108l-89 240l-88 -240h-108z" />
    <glyph glyph-name="Y" unicode="Y" horiz-adv-x="388" 
d="M143 0v301l-140 411h108l82 -283h2l82 283h108l-140 -411v-301h-102z" />
    <glyph glyph-name="Z" unicode="Z" horiz-adv-x="333" 
d="M15 0v90l192 526h-182v96h293v-81l-196 -535h196v-96h-303z" />
    <glyph glyph-name="bracketleft" unicode="[" horiz-adv-x="222" 
d="M214 712v-60h-66v-692h66v-60h-156v812h156z" />
    <glyph glyph-name="backslash" unicode="\" horiz-adv-x="222" 
d="M85 718l132 -724h-80l-132 724h80z" />
    <glyph glyph-name="bracketright" unicode="]" horiz-adv-x="222" 
d="M8 -100v60h66v692h-66v60h156v-812h-156z" />
    <glyph glyph-name="asciicircum" unicode="^" horiz-adv-x="600" 
d="M50 283l217 429h66l217 -429h-80l-170 339l-170 -339h-80z" />
    <glyph glyph-name="underscore" unicode="_" horiz-adv-x="500" 
d="M0 -125v50h500v-50h-500z" />
    <glyph glyph-name="quoteleft" unicode="&#x2018;" horiz-adv-x="186" 
d="M144 712v-176h-102v102z" />
    <glyph glyph-name="a" unicode="a" 
d="M235 0v52h-2c-27 -37 -49 -58 -98 -58c-47 0 -110 23 -110 135c0 116 33 172 161 172c14 0 28 -2 49 -3v53c0 34 -13 60 -51 60c-26 0 -52 -18 -58 -51h-99c3 45 19 83 46 110s65 43 111 43c85 0 153 -54 153 -160v-353h-102zM235 149v69c-11 2 -19 3 -28 3
c-44 0 -80 -18 -80 -72c0 -39 20 -65 53 -65c34 0 55 24 55 65z" />
    <glyph glyph-name="b" unicode="b" horiz-adv-x="389" 
d="M42 0v712h102v-251h2c22 33 54 52 94 52c49 0 74 -19 91 -46c13 -21 16 -50 16 -123v-193c0 -56 -5 -87 -17 -109c-18 -33 -48 -48 -89 -48c-51 0 -71 23 -97 52v-46h-102zM245 165v186c0 32 -11 60 -50 60c-29 0 -51 -23 -51 -55v-197c0 -37 20 -63 51 -63
c35 0 50 28 50 69z" />
    <glyph glyph-name="c" unicode="c" 
d="M150 353v-207c0 -32 19 -50 50 -50c39 0 48 29 50 51h102c0 -42 -15 -81 -41 -108c-27 -28 -64 -45 -111 -45c-62 0 -109 29 -133 73c-14 26 -19 62 -19 103v167c0 41 5 77 19 103c24 44 71 73 133 73c94 0 152 -68 152 -162h-102c0 41 -19 60 -50 60s-50 -20 -50 -58z
" />
    <glyph glyph-name="d" unicode="d" horiz-adv-x="389" 
d="M144 351v-186c0 -41 15 -69 50 -69c31 0 51 26 51 63v197c0 32 -22 55 -51 55c-39 0 -50 -28 -50 -60zM245 0v46c-26 -29 -46 -52 -97 -52c-41 0 -71 15 -89 48c-12 22 -17 53 -17 109v193c0 73 3 102 16 123c17 27 42 46 91 46c40 0 72 -19 94 -52h2v251h102v-712h-102z
" />
    <glyph glyph-name="e" unicode="e" 
d="M337 215h-202v-69c0 -32 19 -50 50 -50c39 0 48 29 50 51h102c0 -42 -15 -81 -41 -108c-27 -28 -64 -45 -111 -45c-62 0 -109 29 -133 73c-14 26 -19 62 -19 103v167c0 41 5 77 19 103c24 44 71 73 133 73c94 0 152 -69 152 -158v-140zM135 353v-58h100v58
c0 38 -19 58 -50 58s-50 -20 -50 -58z" />
    <glyph glyph-name="f" unicode="f" horiz-adv-x="222" 
d="M55 0v427h-50v80h50v69c0 98 65 136 131 136h47v-96h-46c-19 0 -30 -13 -30 -35v-74h76v-80h-76v-427h-102z" />
    <glyph glyph-name="g" unicode="g" horiz-adv-x="389" 
d="M42 -59h102c1 -24 19 -50 54 -50c33 0 47 23 47 55v100h-2c-22 -33 -54 -52 -95 -52s-71 15 -89 48c-12 22 -17 53 -17 109v193c0 73 3 102 16 123c17 27 42 46 91 46c50 0 70 -23 96 -52v46h102v-569c0 -69 -45 -149 -153 -149c-62 0 -139 36 -152 152zM144 342v-186
c0 -32 11 -60 50 -60c29 0 51 23 51 55v197c0 37 -20 63 -51 63c-35 0 -50 -28 -50 -69z" />
    <glyph glyph-name="h" unicode="h" horiz-adv-x="389" 
d="M42 0v712h102v-254h2c21 32 49 55 96 55c51 0 105 -33 105 -124v-389h-102v351c0 37 -18 60 -50 60c-38 0 -51 -25 -51 -70v-341h-102z" />
    <glyph glyph-name="i" unicode="i" horiz-adv-x="186" 
d="M42 0v507h102v-507h-102zM42 610v102h102v-102h-102z" />
    <glyph glyph-name="j" unicode="j" horiz-adv-x="186" 
d="M42 -16v523h102v-561c0 -100 -70 -151 -166 -151v96c49 0 64 19 64 93zM42 610v102h102v-102h-102z" />
    <glyph glyph-name="k" unicode="k" horiz-adv-x="389" 
d="M42 0v712h102v-426h2l123 221h102l-121 -206l146 -301h-111l-92 219l-49 -77v-142h-102z" />
    <glyph glyph-name="l" unicode="l" horiz-adv-x="186" 
d="M36 136v576h102v-569c0 -38 11 -49 50 -53v-96c-94 0 -152 24 -152 142z" />
    <glyph glyph-name="m" unicode="m" horiz-adv-x="592" 
d="M42 0v507h102v-49h2c21 32 49 55 96 55c44 0 73 -26 91 -51c25 28 52 51 106 51c51 0 111 -33 111 -124v-389h-102v351c0 37 -18 60 -50 60c-38 0 -51 -25 -51 -70v-341h-102v351c0 37 -18 60 -50 60c-38 0 -51 -25 -51 -70v-341h-102z" />
    <glyph glyph-name="n" unicode="n" horiz-adv-x="389" 
d="M42 0v507h102v-49h2c21 32 49 55 96 55c51 0 105 -33 105 -124v-389h-102v351c0 37 -18 60 -50 60c-38 0 -51 -25 -51 -70v-341h-102z" />
    <glyph glyph-name="o" unicode="o" 
d="M33 170v167c0 41 5 77 19 103c24 44 71 73 133 73s109 -29 133 -73c14 -26 19 -62 19 -103v-167c0 -41 -5 -77 -19 -103c-24 -44 -71 -73 -133 -73s-109 29 -133 73c-14 26 -19 62 -19 103zM135 353v-199c0 -38 19 -58 50 -58s50 20 50 58v199c0 38 -19 58 -50 58
s-50 -20 -50 -58z" />
    <glyph glyph-name="p" unicode="p" horiz-adv-x="389" 
d="M42 -205v712h102v-46c26 29 46 52 97 52c41 0 71 -15 89 -48c12 -22 17 -53 17 -109v-193c0 -73 -3 -102 -16 -123c-17 -27 -42 -46 -91 -46c-40 0 -72 19 -94 52h-2v-251h-102zM245 156v186c0 41 -15 69 -50 69c-31 0 -51 -26 -51 -63v-197c0 -32 22 -55 51 -55
c39 0 50 28 50 60z" />
    <glyph glyph-name="q" unicode="q" horiz-adv-x="389" 
d="M245 -205v251h-2c-22 -33 -54 -52 -94 -52c-49 0 -74 19 -91 46c-13 21 -16 50 -16 123v193c0 56 5 87 17 109c18 33 48 48 89 48c51 0 71 -23 97 -52v46h102v-712h-102zM144 342v-186c0 -32 11 -60 50 -60c29 0 51 23 51 55v197c0 37 -20 63 -51 63
c-35 0 -50 -28 -50 -69z" />
    <glyph glyph-name="r" unicode="r" horiz-adv-x="278" 
d="M42 0v507h102v-54c42 37 76 60 135 60v-108c-10 4 -20 6 -31 6c-43 0 -104 -27 -104 -110v-301h-102z" />
    <glyph glyph-name="s" unicode="s" horiz-adv-x="352" 
d="M323 365h-96c-1 34 -25 52 -52 52c-32 0 -50 -25 -50 -51c0 -19 5 -37 43 -52l60 -24c76 -29 100 -83 100 -143c0 -84 -64 -153 -152 -153c-80 0 -148 53 -152 153h96c4 -28 17 -57 55 -57c29 0 57 21 57 55c0 28 -12 47 -51 62l-49 18c-64 24 -103 72 -103 140
c0 86 68 148 150 148c83 0 143 -64 144 -148z" />
    <glyph glyph-name="t" unicode="t" horiz-adv-x="204" 
d="M42 507v154h102v-154h63v-80h-63v-281c0 -47 18 -50 63 -50v-96h-42c-92 0 -123 65 -123 119v308h-51v80h51z" />
    <glyph glyph-name="u" unicode="u" horiz-adv-x="389" 
d="M347 507v-507h-102v49h-2c-21 -32 -49 -55 -96 -55c-51 0 -105 33 -105 124v389h102v-351c0 -37 18 -60 50 -60c38 0 51 25 51 70v341h102z" />
    <glyph glyph-name="v" unicode="v" horiz-adv-x="352" 
d="M353 507l-132 -507h-90l-132 507h108l68 -324h2l68 324h108z" />
    <glyph glyph-name="w" unicode="w" horiz-adv-x="536" 
d="M535 507l-120 -507h-90l-56 301h-2l-56 -301h-90l-120 507h108l62 -315h2l57 315h80l54 -315h2l61 315h108z" />
    <glyph glyph-name="x" unicode="x" horiz-adv-x="332" 
d="M-11 0l125 259l-119 248h108l63 -144l63 144h108l-121 -248l127 -259h-108l-69 155l-69 -155h-108z" />
    <glyph glyph-name="y" unicode="y" horiz-adv-x="352" 
d="M-1 507h108l70 -316h2l69 316h105l-146 -595c-22 -91 -80 -117 -141 -117h-28v96h23c41 0 54 14 77 132z" />
    <glyph glyph-name="z" unicode="z" horiz-adv-x="315" 
d="M17 0v81l165 336h-152v90h268v-81l-165 -330h165v-96h-281z" />
    <glyph glyph-name="braceleft" unicode="{" horiz-adv-x="222" 
d="M3 277v60c37 0 64 47 64 112v152c0 70 45 111 98 111h54v-60h-18c-32 0 -44 -25 -44 -66v-151c0 -88 -41 -123 -69 -128v-2c28 -5 69 -37 69 -129v-149c0 -42 12 -67 44 -67h18v-60h-54c-53 0 -98 41 -98 111v151c0 67 -27 115 -64 115z" />
    <glyph glyph-name="bar" unicode="|" horiz-adv-x="222" 
d="M71 -250v1000h80v-1000h-80z" />
    <glyph glyph-name="braceright" unicode="}" horiz-adv-x="222" 
d="M219 337v-60c-37 0 -64 -48 -64 -115v-151c0 -70 -45 -111 -98 -111h-54v60h18c32 0 44 25 44 67v149c0 92 41 124 69 129v2c-28 5 -69 40 -69 128v151c0 41 -12 66 -44 66h-18v60h54c53 0 98 -41 98 -111v-152c0 -65 27 -112 64 -112z" />
    <glyph glyph-name="asciitilde" unicode="~" horiz-adv-x="600" 
d="M495 330l36 -65c-22 -42 -58 -87 -125 -87c-34 0 -73 15 -111 33c-37 16 -75 36 -102 36c-40 0 -65 -37 -88 -71l-36 64c22 42 58 87 125 87c34 0 73 -15 111 -33c37 -16 75 -36 102 -36c40 0 65 37 88 72z" />
    <glyph glyph-name="exclamdown" unicode="&#xa1;" horiz-adv-x="240" 
d="M56 -205l39 536h50l39 -536h-128zM69 405v102h102v-102h-102z" />
    <glyph glyph-name="cent" unicode="&#xa2;" horiz-adv-x="372" 
d="M164 96v315c-8 -3 -15 -10 -20 -19s-8 -20 -8 -35v-215c0 -24 11 -40 28 -46zM164 -90v84c-51 4 -90 32 -111 70c-14 26 -19 62 -19 103v172c0 41 5 77 19 103c21 39 60 66 111 71v75h41v-75c82 -7 133 -72 133 -162h-102c0 35 -11 53 -31 60v-315c23 8 29 30 31 51h102
c0 -44 -15 -83 -41 -110c-23 -24 -54 -40 -92 -43v-84h-41z" />
    <glyph glyph-name="sterling" unicode="&#xa3;" horiz-adv-x="372" 
d="M13 298v71h55c-25 47 -38 84 -38 152c0 105 47 197 162 197c66 0 148 -49 148 -163v-45h-96v40c0 36 -12 72 -55 72c-47 0 -63 -46 -63 -102c0 -52 16 -109 32 -151h116v-71h-93c9 -25 18 -46 18 -88c0 -40 -13 -76 -32 -109c22 -3 54 -11 82 -11c23 0 42 3 66 32l68 -69
c-31 -43 -64 -59 -111 -59c-38 0 -125 19 -170 19c-29 0 -66 -10 -79 -16v86c10 6 42 18 64 20c17 25 27 56 27 87c0 29 -9 72 -23 108h-78z" />
    <glyph glyph-name="fraction" unicode="&#x2044;" horiz-adv-x="167" 
d="M-165 -17l437 746h60l-437 -746h-60z" />
    <glyph glyph-name="yen" unicode="&#xa5;" horiz-adv-x="372" 
d="M138 0v172h-114v66h114v49h-114v66h98l-118 359h102l79 -283h2l79 283h102l-118 -359h98v-66h-114v-49h114v-66h-114v-172h-96z" />
    <glyph glyph-name="florin" unicode="&#x192;" horiz-adv-x="372" 
d="M45 371l11 80h84l23 128c21 115 75 139 139 139c18 0 37 -2 64 -4l-14 -92c-13 2 -26 6 -39 6c-35 0 -49 -16 -59 -74l-18 -103h77l-13 -80h-78l-71 -398c-18 -102 -52 -175 -158 -175c-23 0 -36 3 -53 8l11 94c12 -4 27 -6 40 -6c35 0 52 23 59 60l75 417h-80z" />
    <glyph glyph-name="section" unicode="&#xa7;" 
d="M325 581v-46h-85v42c0 31 -17 61 -50 61c-42 0 -52 -33 -52 -73c0 -48 3 -56 47 -84l97 -63c48 -31 55 -55 55 -159c0 -97 -6 -124 -87 -161c67 -34 75 -60 75 -141c0 -56 -5 -85 -25 -114c-23 -33 -69 -54 -114 -54c-109 0 -143 85 -143 143v42h85v-41
c0 -35 23 -64 55 -64c41 0 57 25 57 78c0 50 -6 62 -32 78l-118 72c-53 32 -57 69 -57 162c0 115 18 148 92 171c-66 33 -72 64 -72 134c0 105 63 154 137 154c66 0 135 -45 135 -137zM135 312v-99c0 -29 22 -53 50 -53c27 0 50 24 50 53v99c0 29 -23 53 -50 53
c-28 0 -50 -24 -50 -53z" />
    <glyph glyph-name="currency" unicode="&#xa4;" horiz-adv-x="372" 
d="M4 214l42 42c-21 22 -35 60 -35 100s13 77 34 100l-41 42l41 41l41 -42c23 20 60 34 100 34s77 -13 101 -34l41 42l40 -41l-41 -41c21 -24 34 -61 34 -101c0 -41 -14 -78 -34 -100l41 -41l-41 -41l-41 41c-23 -21 -60 -34 -100 -34s-77 14 -100 35l-41 -42zM77 356
c0 -60 49 -109 109 -109s109 49 109 109s-49 109 -109 109s-109 -49 -109 -109z" />
    <glyph glyph-name="quotesingle" unicode="'" horiz-adv-x="186" 
d="M53 536v176h80v-176h-80z" />
    <glyph glyph-name="quotedblleft" unicode="&#x201c;" horiz-adv-x="278" 
d="M260 712v-176h-102v102zM120 712v-176h-102v102z" />
    <glyph glyph-name="guillemotleft" unicode="&#xab;" horiz-adv-x="426" 
d="M398 479v-102l-101 -100l101 -100v-102l-203 202zM213 479v-102l-101 -100l101 -100v-102l-203 202z" />
    <glyph glyph-name="guilsinglleft" unicode="&#x2039;" horiz-adv-x="241" 
d="M213 479v-102l-101 -100l101 -100v-102l-203 202z" />
    <glyph glyph-name="guilsinglright" unicode="&#x203a;" horiz-adv-x="241" 
d="M28 75v102l101 100l-101 100v102l203 -202z" />
    <glyph glyph-name="fi" unicode="&#xfb01;" horiz-adv-x="407" 
d="M55 0v427h-50v80h50v69c0 98 65 136 131 136h47v-96h-46c-19 0 -30 -13 -30 -35v-74h76v-80h-76v-427h-102zM263 0v507h102v-507h-102zM263 610v102h102v-102h-102z" />
    <glyph glyph-name="fl" unicode="&#xfb02;" horiz-adv-x="407" 
d="M55 0v427h-50v80h50v69c0 98 65 136 131 136h47v-96h-46c-19 0 -30 -13 -30 -35v-74h76v-80h-76v-427h-102zM263 136v576h102v-569c0 -38 11 -49 50 -53v-96c-94 0 -152 24 -152 142z" />
    <glyph glyph-name="endash" unicode="&#x2013;" horiz-adv-x="500" 
d="M0 229v96h500v-96h-500z" />
    <glyph glyph-name="dagger" unicode="&#x2020;" 
d="M140 -205v601h-134v90h134v226h90v-226h134v-90h-134v-601h-90z" />
    <glyph glyph-name="daggerdbl" unicode="&#x2021;" 
d="M140 494v218h90v-218h134v-80h-134v-321h134v-80h-134v-218h-90v218h-134v80h134v321h-134v80h134z" />
    <glyph glyph-name="periodcentered" unicode="&#xb7;" horiz-adv-x="186" 
d="M29 298c0 35 29 64 64 64s64 -29 64 -64s-29 -64 -64 -64s-64 29 -64 64z" />
    <glyph glyph-name="paragraph" unicode="&#xb6;" horiz-adv-x="444" 
d="M182 -205v539c-87 0 -174 82 -174 186c0 130 88 192 218 192h172v-917h-72v866h-72v-866h-72z" />
    <glyph glyph-name="bullet" unicode="&#x2022;" horiz-adv-x="500" 
d="M72 356c0 98 80 178 178 178s178 -80 178 -178s-80 -178 -178 -178s-178 80 -178 178z" />
    <glyph glyph-name="quotesinglbase" unicode="&#x201a;" horiz-adv-x="186" 
d="M42 -74v176h102v-102z" />
    <glyph glyph-name="quotedblbase" unicode="&#x201e;" horiz-adv-x="278" 
d="M18 -74v176h102v-102zM158 -74v176h102v-102z" />
    <glyph glyph-name="quotedblright" unicode="&#x201d;" horiz-adv-x="278" 
d="M18 536v176h102v-102zM158 536v176h102v-102z" />
    <glyph glyph-name="guillemotright" unicode="&#xbb;" horiz-adv-x="426" 
d="M213 75v102l101 100l-101 100v102l203 -202zM28 75v102l101 100l-101 100v102l203 -202z" />
    <glyph glyph-name="ellipsis" unicode="&#x2026;" horiz-adv-x="1000" 
d="M116 0v102h102v-102h-102zM449 0v102h102v-102h-102zM782 0v102h102v-102h-102z" />
    <glyph glyph-name="perthousand" unicode="&#x2030;" horiz-adv-x="537" 
d="M418 131v-51c0 -14 12 -26 25 -26s25 12 25 26v51c0 14 -12 26 -25 26s-25 -12 -25 -26zM358 70v65c0 50 33 82 85 82s85 -32 85 -82v-65c0 -45 -33 -76 -85 -76s-85 31 -85 76zM69 632v-51c0 -14 12 -26 25 -26s25 12 25 26v51c0 14 -12 26 -25 26s-25 -12 -25 -26z
M9 571v65c0 50 33 82 85 82s85 -32 85 -82v-65c0 -45 -33 -76 -85 -76s-85 31 -85 76zM225 131v-51c0 -14 12 -26 25 -26s25 12 25 26v51c0 14 -12 26 -25 26s-25 -12 -25 -26zM165 70v65c0 50 33 82 85 82s85 -32 85 -82v-65c0 -45 -33 -76 -85 -76s-85 31 -85 76zM20 0
l244 712h66l-244 -712h-66z" />
    <glyph glyph-name="questiondown" unicode="&#xbf;" 
d="M338 0v-59c0 -84 -69 -152 -154 -152c-49 0 -91 21 -118 57s-34 61 -34 122c0 68 3 92 16 114l69 118c9 16 17 33 17 51v80h102v-93c0 -29 -10 -56 -25 -81l-64 -104c-10 -17 -13 -38 -13 -58v-53c0 -28 22 -51 50 -51c24 0 52 18 52 51v58h102zM236 507v-102h-102v102
h102z" />
    <glyph glyph-name="grave" unicode="`" horiz-adv-x="186" 
d="M68 715l90 -141h-66l-132 141h108z" />
    <glyph glyph-name="acute" unicode="&#xb4;" horiz-adv-x="186" 
d="M28 574l90 141h108l-132 -141h-66z" />
    <glyph glyph-name="circumflex" unicode="&#x2c6;" horiz-adv-x="186" 
d="M-52 574l98 141h94l98 -141h-78l-67 95l-67 -95h-78z" />
    <glyph glyph-name="tilde" unicode="&#x2dc;" horiz-adv-x="186" 
d="M212 699h51c-12 -61 -37 -111 -101 -111c-31 0 -121 40 -144 40c-28 0 -43 -19 -44 -45h-51c12 61 37 111 101 111c31 0 122 -40 144 -40c28 0 43 19 44 45z" />
    <glyph glyph-name="macron" unicode="&#xaf;" horiz-adv-x="186" 
d="M-44 607v60h274v-60h-274z" />
    <glyph glyph-name="breve" unicode="&#x2d8;" horiz-adv-x="186" 
d="M196 715h51c-14 -89 -66 -136 -154 -136s-140 47 -154 136h51c5 -37 28 -76 103 -76s98 39 103 76z" />
    <glyph glyph-name="dotaccent" unicode="&#x2d9;" horiz-adv-x="186" 
d="M48 586v102h90v-102h-90z" />
    <glyph glyph-name="dieresis" unicode="&#xa8;" horiz-adv-x="186" 
d="M-33 586v102h90v-102h-90zM129 586v102h90v-102h-90z" />
    <glyph glyph-name="ring" unicode="&#x2da;" horiz-adv-x="186" 
d="M-9 660c0 56 46 102 102 102s102 -47 102 -102c0 -56 -46 -102 -102 -102s-102 47 -102 102zM32 660c0 -34 27 -61 61 -61s61 27 61 61s-27 61 -61 61s-61 -27 -61 -61z" />
    <glyph glyph-name="cedilla" unicode="&#xb8;" horiz-adv-x="186" 
d="M20 -86l65 86h46l-46 -60c10 1 21 2 31 2c66 0 85 -43 85 -75c0 -65 -68 -91 -123 -91c-39 0 -74 12 -93 19l17 42c21 -8 43 -15 65 -15s54 7 54 41c0 23 -22 38 -45 38c-14 0 -26 -2 -39 -7z" />
    <glyph glyph-name="hungarumlaut" unicode="&#x2dd;" horiz-adv-x="186" 
d="M-54 574l90 141h108l-132 -141h-66zM108 574l90 141h108l-132 -141h-66z" />
    <glyph glyph-name="ogonek" unicode="&#x2db;" horiz-adv-x="186" 
d="M181 -165l14 -37c-20 -11 -53 -22 -97 -22c-56 0 -99 35 -99 91c0 65 41 97 93 133h51c-40 -38 -64 -85 -64 -126c0 -32 23 -52 49 -52c22 0 39 5 53 13z" />
    <glyph glyph-name="caron" unicode="&#x2c7;" horiz-adv-x="186" 
d="M238 715l-98 -141h-94l-98 141h78l67 -95l67 95h78z" />
    <glyph glyph-name="emdash" unicode="&#x2014;" horiz-adv-x="1000" 
d="M0 229v96h1000v-96h-1000z" />
    <glyph glyph-name="AE" unicode="&#xc6;" horiz-adv-x="611" 
d="M2 0l202 712h389v-96h-202v-209h176v-96h-176v-209h202v-102h-304v153h-140l-39 -153h-108zM289 249v367h-24l-92 -367h116z" />
    <glyph glyph-name="ordfeminine" unicode="&#xaa;" horiz-adv-x="240" 
d="M154 410v31h-2c-17 -22 -31 -35 -63 -35c-31 0 -75 14 -75 82c0 70 25 106 108 106c9 0 18 -1 32 -2v24c0 20 -9 36 -33 36c-17 0 -34 -8 -37 -30h-66c2 31 13 54 30 70c18 16 43 26 73 26c55 0 105 -33 105 -96v-212h-72zM154 504v37c-7 1 -13 2 -18 2
c-29 0 -50 -11 -50 -44c0 -18 11 -29 32 -29c22 0 36 15 36 34z" />
    <glyph glyph-name="Lslash" unicode="&#x141;" 
d="M48 0v265l-48 -38v90l48 38v357h102v-277l120 96v-90l-120 -96v-243h202v-102h-304z" />
    <glyph glyph-name="Oslash" unicode="&#xd8;" horiz-adv-x="426" 
d="M10 -16l50 103c-12 23 -18 50 -18 81v376c0 116 88 174 171 174c45 0 91 -17 125 -52l40 84l38 -22l-50 -103c11 -21 18 -49 18 -81v-376c0 -116 -88 -174 -171 -174c-46 0 -93 17 -125 52l-40 -84zM146 262l136 287c-3 46 -34 67 -69 67c-37 0 -69 -23 -69 -72v-282h2z
M280 449l-136 -286c2 -45 33 -67 69 -67c37 0 69 23 69 72v281h-2z" />
    <glyph glyph-name="OE" unicode="&#x152;" horiz-adv-x="610" 
d="M288 158v396c0 40 -27 74 -69 74s-69 -34 -69 -74v-396c0 -40 27 -74 69 -74s69 34 69 74zM592 712v-96h-202v-209h176v-96h-176v-209h202v-102h-304v34h-2c-17 -23 -52 -40 -85 -40c-97 0 -153 79 -153 169v386c0 90 56 169 153 169c44 0 71 -20 85 -42h2v36h304z" />
    <glyph glyph-name="ordmasculine" unicode="&#xba;" horiz-adv-x="240" 
d="M18 505v114c0 57 40 99 102 99s102 -42 102 -99v-114c0 -57 -40 -99 -102 -99s-102 42 -102 99zM90 617v-111c0 -22 11 -34 30 -34s30 12 30 34v111c0 23 -11 35 -30 35s-30 -12 -30 -35z" />
    <glyph glyph-name="ae" unicode="&#xe6;" horiz-adv-x="572" 
d="M337 353v-58h100v58c0 38 -19 58 -50 58s-50 -20 -50 -58zM539 355v-140h-202v-69c0 -32 19 -50 50 -50c39 0 48 29 50 51h102c0 -88 -63 -152 -152 -153c-67 -1 -113 33 -133 72c-24 -48 -69 -72 -119 -72c-47 0 -110 23 -110 135c0 116 33 172 161 172
c14 0 28 -2 49 -3v53c0 34 -13 60 -51 60c-26 0 -52 -18 -58 -51h-99c6 90 65 153 157 153c42 0 74 -13 101 -36c25 22 63 36 102 36c94 0 152 -69 152 -158zM235 149v69c-11 2 -19 3 -28 3c-44 0 -80 -18 -80 -72c0 -39 20 -65 53 -65c34 0 55 24 55 65z" />
    <glyph glyph-name="dotlessi" unicode="&#x131;" horiz-adv-x="186" 
d="M42 0v507h102v-507h-102z" />
    <glyph glyph-name="lslash" unicode="&#x142;" horiz-adv-x="186" 
d="M36 136v172l-50 -44v72l50 44v332h102v-242l50 43v-72l-50 -43v-255c0 -38 11 -49 50 -53v-96c-94 0 -152 24 -152 142z" />
    <glyph glyph-name="oslash" unicode="&#xf8;" 
d="M137 209l95 163c-4 25 -21 39 -47 39c-31 0 -50 -20 -50 -58v-144h2zM233 298l-95 -163c4 -25 21 -39 47 -39c31 0 50 20 50 58v144h-2zM4 -12l49 83c-13 26 -20 55 -20 87v191c0 95 58 164 152 164c44 0 80 -15 106 -42l41 69l34 -21l-49 -83c13 -26 20 -55 20 -87v-191
c0 -95 -58 -164 -152 -164c-44 0 -80 15 -106 42l-41 -69z" />
    <glyph glyph-name="oe" unicode="&#x153;" horiz-adv-x="572" 
d="M33 170v167c0 41 5 77 19 103c24 44 71 73 133 73c42 0 78 -15 101 -34c26 23 63 34 101 34c94 0 152 -69 152 -158v-140h-202v-69c0 -32 19 -50 50 -50c39 0 48 29 50 51h102c0 -42 -15 -81 -41 -108c-27 -28 -64 -45 -111 -45c-37 0 -82 11 -105 35
c-22 -21 -58 -35 -97 -35c-62 0 -109 29 -133 73c-14 26 -19 62 -19 103zM337 353v-58h100v58c0 38 -19 58 -50 58s-50 -20 -50 -58zM135 353v-199c0 -38 19 -58 50 -58s50 20 50 58v199c0 38 -19 58 -50 58s-50 -20 -50 -58z" />
    <glyph glyph-name="germandbls" unicode="&#xdf;" horiz-adv-x="389" 
d="M42 0v552c0 87 47 166 151 166c116 0 154 -80 154 -182c0 -71 -10 -93 -59 -124c38 -21 59 -51 59 -102v-176c0 -124 -71 -140 -146 -140v96c29 0 44 9 44 51v190c0 26 -16 33 -44 33v90c31 0 44 7 44 39v80c0 28 -9 49 -48 49c-38 0 -53 -22 -53 -88v-534h-102z" />
    <glyph glyph-name="divide" unicode="&#xf7;" horiz-adv-x="600" 
d="M47 213v80h506v-80h-506zM236 46c0 35 29 64 64 64s64 -29 64 -64s-29 -64 -64 -64s-64 29 -64 64zM236 460c0 35 29 64 64 64s64 -29 64 -64s-29 -64 -64 -64s-64 29 -64 64z" />
    <glyph glyph-name="threequarters" unicode="&#xbe;" horiz-adv-x="555" 
d="M37 -17l437 746h60l-437 -746h-60zM100 474v66c39 0 50 6 51 34v42c0 17 -12 30 -30 30c-21 0 -30 -18 -30 -30v-26h-80v32c0 56 46 96 112 96c74 0 108 -51 108 -100v-41c0 -29 -5 -50 -41 -69c32 -19 41 -40 41 -73v-51c0 -49 -32 -101 -110 -101
c-54 0 -110 24 -110 94v34h80v-23c0 -20 12 -33 30 -33c17 0 30 15 30 30v52c0 30 -10 37 -51 37zM434 0v62h-143v62l98 303h80l-94 -299h59v115h80v-115h30v-66h-30v-62h-80z" />
    <glyph glyph-name="onequarter" unicode="&#xbc;" horiz-adv-x="555" 
d="M18 -17l437 746h60l-437 -746h-60zM77 287v353l-66 -43v72l66 43h80v-425h-80zM434 0v62h-143v62l98 303h80l-94 -299h59v115h80v-115h30v-66h-30v-62h-80z" />
    <glyph glyph-name="onesuperior" unicode="&#xb9;" horiz-adv-x="242" 
d="M93 287v353l-66 -43v72l66 43h80v-425h-80z" />
    <glyph glyph-name="multiply" unicode="&#xd7;" horiz-adv-x="600" 
d="M67 77l177 176l-177 177l57 56l176 -176l177 176l56 -56l-176 -177l176 -176l-56 -57l-177 177l-176 -177z" />
    <glyph glyph-name="registered" unicode="&#xae;" horiz-adv-x="800" 
d="M329 507v-119h75c65 0 98 18 98 63c0 39 -32 56 -77 56h-96zM263 145v422h160c97 0 145 -39 145 -119c0 -79 -49 -111 -108 -118l121 -185h-80l-121 183h-51v-183h-66zM690 356c0 163 -130 296 -290 296s-290 -133 -290 -296s130 -296 290 -296s290 133 290 296zM38 356
c0 200 162 362 362 362s362 -162 362 -362s-162 -362 -362 -362s-362 162 -362 362z" />
    <glyph glyph-name="Thorn" unicode="&#xde;" horiz-adv-x="407" 
d="M48 0v712h102v-124h51c56 0 97 -13 132 -50s46 -82 46 -167c0 -62 -5 -104 -29 -143c-28 -46 -73 -74 -148 -74h-52v-154h-102zM150 492v-242h49c83 0 84 49 84 120c0 67 0 122 -80 122h-53z" />
    <glyph glyph-name="brokenbar" unicode="&#xa6;" horiz-adv-x="222" 
d="M71 -175v350h80v-350h-80zM71 325v350h80v-350h-80z" />
    <glyph glyph-name="Eth" unicode="&#xd0;" horiz-adv-x="426" 
d="M150 616v-200h70v-66h-70v-254h47c57 0 79 28 79 89v343c0 56 -19 88 -79 88h-47zM48 0v350h-48v66h48v296h151c115 0 179 -69 179 -184v-333c0 -132 -68 -195 -188 -195h-142z" />
    <glyph glyph-name="onehalf" unicode="&#xbd;" horiz-adv-x="555" 
d="M18 -17l437 746h60l-437 -746h-60zM77 287v353l-66 -43v72l66 43h80v-425h-80zM322 0v54l130 212c7 12 12 25 12 39v23c0 20 -17 31 -31 31c-17 0 -31 -11 -31 -31v-31h-80v36c0 56 48 98 112 98c60 0 110 -38 110 -91v-33c0 -35 -9 -52 -23 -75l-95 -160h118v-72h-222z
" />
    <glyph glyph-name="minus" unicode="&#x2212;" horiz-adv-x="600" 
d="M47 213v80h506v-80h-506z" />
    <glyph glyph-name="ccedilla" unicode="&#xe7;" 
d="M112 -86l63 82c-50 7 -88 34 -108 71c-14 26 -19 62 -19 103v167c0 41 5 77 19 103c24 44 71 73 133 73c94 0 152 -68 152 -162h-102c0 41 -19 60 -50 60s-50 -20 -50 -58v-207c0 -32 19 -50 50 -50c39 0 48 29 50 51h102c0 -42 -15 -81 -41 -108
c-23 -24 -53 -39 -91 -43l-43 -56c10 1 21 2 31 2c66 0 85 -43 85 -75c0 -65 -68 -91 -123 -91c-39 0 -74 12 -93 19l17 42c21 -8 43 -15 65 -15s54 7 54 41c0 23 -22 38 -45 38c-14 0 -26 -2 -39 -7z" />
    <glyph glyph-name="eth" unicode="&#xf0;" 
d="M135 353v-199c0 -38 19 -58 50 -58s50 20 50 58v199c0 38 -19 58 -50 58s-50 -20 -50 -58zM86 608l69 32c-20 17 -46 31 -77 43l83 44c32 -11 58 -27 80 -47l68 32l28 -40l-63 -29c50 -66 63 -157 63 -235v-238c0 -41 -5 -77 -19 -103c-24 -44 -71 -73 -133 -73
s-109 29 -133 73c-14 26 -19 62 -19 103v167c0 41 5 77 19 103c24 44 71 73 133 73c19 0 38 -10 48 -23l2 2c-11 46 -25 83 -47 111l-74 -35z" />
    <glyph glyph-name="plusminus" unicode="&#xb1;" horiz-adv-x="600" 
d="M260 104v161h-213v80h213v161h80v-161h213v-80h-213v-161h-80zM47 0v80h506v-80h-506z" />
    <glyph glyph-name="Ccedilla" unicode="&#xc7;" horiz-adv-x="407" 
d="M131 -86l61 80c-73 6 -150 48 -150 168v392c0 93 67 164 166 164c94 0 164 -71 164 -170v-40h-102v34c0 40 -24 74 -63 74c-51 0 -63 -35 -63 -83v-364c0 -41 16 -73 62 -73c28 0 64 16 64 72v35h102v-44c0 -78 -56 -148 -133 -163l-43 -56c10 1 21 2 31 2
c66 0 85 -43 85 -75c0 -65 -68 -91 -123 -91c-39 0 -74 12 -93 19l17 42c21 -8 43 -15 65 -15s54 7 54 41c0 23 -22 38 -45 38c-14 0 -26 -2 -39 -7z" />
    <glyph glyph-name="thorn" unicode="&#xfe;" horiz-adv-x="389" 
d="M42 -205v917h102v-251c26 29 46 52 97 52c41 0 71 -15 89 -48c12 -22 17 -53 17 -109v-193c0 -73 -3 -102 -16 -123c-17 -27 -42 -46 -91 -46c-40 0 -72 19 -94 52h-2v-251h-102zM245 156v186c0 41 -15 69 -50 69c-31 0 -51 -26 -51 -63v-197c0 -32 22 -55 51 -55
c39 0 50 28 50 60z" />
    <glyph glyph-name="copyright" unicode="&#xa9;" horiz-adv-x="800" 
d="M524 287h66c-18 -94 -89 -156 -177 -156c-130 0 -214 99 -214 225c0 130 79 226 211 226c91 0 167 -54 180 -151h-66c-11 47 -56 85 -113 85c-89 0 -140 -71 -140 -158c0 -83 56 -161 142 -161c57 0 102 40 111 90zM690 356c0 163 -130 296 -290 296s-290 -133 -290 -296
s130 -296 290 -296s290 133 290 296zM38 356c0 200 162 362 362 362s362 -162 362 -362s-162 -362 -362 -362s-362 162 -362 362z" />
    <glyph glyph-name="logicalnot" unicode="&#xac;" horiz-adv-x="600" 
d="M473 113v200h-426v80h506v-280h-80z" />
    <glyph glyph-name="twosuperior" unicode="&#xb2;" horiz-adv-x="242" 
d="M11 584v36c0 56 48 98 110 98c60 0 110 -38 110 -91v-33c0 -35 -9 -52 -23 -75l-95 -160h118v-72h-220v54l128 212c7 12 12 25 12 39v23c0 20 -17 31 -31 31c-15 0 -29 -11 -29 -31v-31h-80z" />
    <glyph glyph-name="threesuperior" unicode="&#xb3;" horiz-adv-x="242" 
d="M100 474v66c39 0 50 6 51 34v42c0 17 -12 30 -30 30c-21 0 -30 -18 -30 -30v-26h-80v32c0 56 46 96 112 96c74 0 108 -51 108 -100v-41c0 -29 -5 -50 -41 -69c32 -19 41 -40 41 -73v-51c0 -49 -32 -101 -110 -101c-54 0 -110 24 -110 94v34h80v-23c0 -20 12 -33 30 -33
c17 0 30 15 30 30v52c0 30 -10 37 -51 37z" />
    <glyph glyph-name="trademark" unicode="&#x2122;" horiz-adv-x="990" 
d="M166 300v346h-127v66h326v-66h-127v-346h-72zM805 300v346h-2l-137 -346h-41l-136 346h-2v-346h-72v412h114l117 -301l117 301h114v-412h-72z" />
    <glyph glyph-name="degree" unicode="&#xb0;" horiz-adv-x="260" 
d="M69 606c0 -34 27 -61 61 -61s61 27 61 61s-27 61 -61 61s-61 -27 -61 -61zM18 606c0 62 50 112 112 112s112 -50 112 -112s-50 -112 -112 -112s-112 50 -112 112z" />
    <glyph glyph-name="mu" unicode="&#xb5;" horiz-adv-x="389" 
d="M347 507v-507h-102v49h-2c-9 -19 -21 -33 -32 -42c-12 -9 -23 -13 -34 -13c-15 0 -25 4 -31 10h-2v-209h-102v712h102v-351c0 -37 18 -60 50 -60c38 0 51 25 51 70v341h102z" />
    <glyph glyph-name="Aacute" unicode="&#xc1;" horiz-adv-x="407" 
d="M254 249l-50 258h-2l-50 -258h102zM2 0l159 712h85l159 -712h-102l-30 153h-139l-30 -153h-102zM139 744l90 141h108l-132 -141h-66z" />
    <glyph glyph-name="Acircumflex" unicode="&#xc2;" horiz-adv-x="407" 
d="M254 249l-50 258h-2l-50 -258h102zM2 0l159 712h85l159 -712h-102l-30 153h-139l-30 -153h-102zM59 744l98 141h94l98 -141h-78l-67 95l-67 -95h-78z" />
    <glyph glyph-name="Adieresis" unicode="&#xc4;" horiz-adv-x="407" 
d="M254 249l-50 258h-2l-50 -258h102zM2 0l159 712h85l159 -712h-102l-30 153h-139l-30 -153h-102zM78 756v102h90v-102h-90zM240 756v102h90v-102h-90z" />
    <glyph glyph-name="Agrave" unicode="&#xc0;" horiz-adv-x="407" 
d="M254 249l-50 258h-2l-50 -258h102zM2 0l159 712h85l159 -712h-102l-30 153h-139l-30 -153h-102zM179 885l90 -141h-66l-132 141h108z" />
    <glyph glyph-name="Aring" unicode="&#xc5;" horiz-adv-x="407" 
d="M254 249l-50 258h-2l-50 -258h102zM2 0l159 712h85l159 -712h-102l-30 153h-139l-30 -153h-102zM102 835c0 56 46 102 102 102s102 -47 102 -102c0 -56 -46 -102 -102 -102s-102 47 -102 102zM143 835c0 -34 27 -61 61 -61s61 27 61 61s-27 61 -61 61s-61 -27 -61 -61z
" />
    <glyph glyph-name="Atilde" unicode="&#xc3;" horiz-adv-x="407" 
d="M254 249l-50 258h-2l-50 -258h102zM2 0l159 712h85l159 -712h-102l-30 153h-139l-30 -153h-102zM323 869h51c-12 -61 -37 -111 -101 -111c-31 0 -121 40 -144 40c-28 0 -43 -19 -44 -45h-51c12 61 37 111 101 111c31 0 122 -40 144 -40c28 0 43 19 44 45z" />
    <glyph glyph-name="Eacute" unicode="&#xc9;" 
d="M48 0v712h304v-96h-202v-209h176v-96h-176v-209h202v-102h-304zM130 744l90 141h108l-132 -141h-66z" />
    <glyph glyph-name="Ecircumflex" unicode="&#xca;" 
d="M48 0v712h304v-96h-202v-209h176v-96h-176v-209h202v-102h-304zM50 744l98 141h94l98 -141h-78l-67 95l-67 -95h-78z" />
    <glyph glyph-name="Edieresis" unicode="&#xcb;" 
d="M48 0v712h304v-96h-202v-209h176v-96h-176v-209h202v-102h-304zM69 756v102h90v-102h-90zM231 756v102h90v-102h-90z" />
    <glyph glyph-name="Egrave" unicode="&#xc8;" 
d="M48 0v712h304v-96h-202v-209h176v-96h-176v-209h202v-102h-304zM170 885l90 -141h-66l-132 141h108z" />
    <glyph glyph-name="Iacute" unicode="&#xcd;" horiz-adv-x="204" 
d="M51 0v712h102v-712h-102zM37 744l90 141h108l-132 -141h-66z" />
    <glyph glyph-name="Icircumflex" unicode="&#xce;" horiz-adv-x="204" 
d="M51 0v712h102v-712h-102zM-43 744l98 141h94l98 -141h-78l-67 95l-67 -95h-78z" />
    <glyph glyph-name="Idieresis" unicode="&#xcf;" horiz-adv-x="204" 
d="M51 0v712h102v-712h-102zM-24 756v102h90v-102h-90zM138 756v102h90v-102h-90z" />
    <glyph glyph-name="Igrave" unicode="&#xcc;" horiz-adv-x="204" 
d="M51 0v712h102v-712h-102zM77 885l90 -141h-66l-132 141h108z" />
    <glyph glyph-name="Ntilde" unicode="&#xd1;" horiz-adv-x="444" 
d="M44 0v712h98l154 -429h2v429h102v-712h-96l-156 428h-2v-428h-102zM341 869h51c-12 -61 -37 -111 -101 -111c-31 0 -121 40 -144 40c-28 0 -43 -19 -44 -45h-51c12 61 37 111 101 111c31 0 122 -40 144 -40c28 0 43 19 44 45z" />
    <glyph glyph-name="Oacute" unicode="&#xd3;" horiz-adv-x="426" 
d="M42 168v376c0 116 88 174 171 174s171 -58 171 -174v-376c0 -116 -88 -174 -171 -174s-171 58 -171 174zM144 544v-376c0 -49 32 -72 69 -72s69 23 69 72v376c0 49 -32 72 -69 72s-69 -23 -69 -72zM148 744l90 141h108l-132 -141h-66z" />
    <glyph glyph-name="Ocircumflex" unicode="&#xd4;" horiz-adv-x="426" 
d="M42 168v376c0 116 88 174 171 174s171 -58 171 -174v-376c0 -116 -88 -174 -171 -174s-171 58 -171 174zM144 544v-376c0 -49 32 -72 69 -72s69 23 69 72v376c0 49 -32 72 -69 72s-69 -23 -69 -72zM68 744l98 141h94l98 -141h-78l-67 95l-67 -95h-78z" />
    <glyph glyph-name="Odieresis" unicode="&#xd6;" horiz-adv-x="426" 
d="M42 168v376c0 116 88 174 171 174s171 -58 171 -174v-376c0 -116 -88 -174 -171 -174s-171 58 -171 174zM144 544v-376c0 -49 32 -72 69 -72s69 23 69 72v376c0 49 -32 72 -69 72s-69 -23 -69 -72zM87 756v102h90v-102h-90zM249 756v102h90v-102h-90z" />
    <glyph glyph-name="Ograve" unicode="&#xd2;" horiz-adv-x="426" 
d="M42 168v376c0 116 88 174 171 174s171 -58 171 -174v-376c0 -116 -88 -174 -171 -174s-171 58 -171 174zM144 544v-376c0 -49 32 -72 69 -72s69 23 69 72v376c0 49 -32 72 -69 72s-69 -23 -69 -72zM188 885l90 -141h-66l-132 141h108z" />
    <glyph glyph-name="Otilde" unicode="&#xd5;" horiz-adv-x="426" 
d="M42 168v376c0 116 88 174 171 174s171 -58 171 -174v-376c0 -116 -88 -174 -171 -174s-171 58 -171 174zM144 544v-376c0 -49 32 -72 69 -72s69 23 69 72v376c0 49 -32 72 -69 72s-69 -23 -69 -72zM332 869h51c-12 -61 -37 -111 -101 -111c-31 0 -121 40 -144 40
c-28 0 -43 -19 -44 -45h-51c12 61 37 111 101 111c31 0 122 -40 144 -40c28 0 43 19 44 45z" />
    <glyph glyph-name="Scaron" unicode="&#x160;" horiz-adv-x="406" 
d="M378 557v-50h-102v23c0 47 -20 86 -72 86c-56 0 -69 -45 -69 -92c0 -55 5 -74 58 -95l78 -31c90 -34 107 -91 107 -195c0 -120 -44 -209 -176 -209c-99 0 -174 73 -174 169v38h102v-32c0 -37 20 -73 72 -73c69 0 74 41 74 106c0 76 -9 88 -59 108l-73 30
c-88 36 -111 94 -111 183c0 108 58 195 175 195c102 0 170 -82 170 -161zM348 885l-98 -141h-94l-98 141h78l67 -95l67 95h78z" />
    <glyph glyph-name="Uacute" unicode="&#xda;" horiz-adv-x="426" 
d="M378 712v-552c0 -93 -74 -166 -165 -166s-165 73 -165 166v552h102v-542c0 -50 27 -74 63 -74s63 24 63 74v542h102zM148 744l90 141h108l-132 -141h-66z" />
    <glyph glyph-name="Ucircumflex" unicode="&#xdb;" horiz-adv-x="426" 
d="M378 712v-552c0 -93 -74 -166 -165 -166s-165 73 -165 166v552h102v-542c0 -50 27 -74 63 -74s63 24 63 74v542h102zM68 744l98 141h94l98 -141h-78l-67 95l-67 -95h-78z" />
    <glyph glyph-name="Udieresis" unicode="&#xdc;" horiz-adv-x="426" 
d="M378 712v-552c0 -93 -74 -166 -165 -166s-165 73 -165 166v552h102v-542c0 -50 27 -74 63 -74s63 24 63 74v542h102zM87 756v102h90v-102h-90zM249 756v102h90v-102h-90z" />
    <glyph glyph-name="Ugrave" unicode="&#xd9;" horiz-adv-x="426" 
d="M378 712v-552c0 -93 -74 -166 -165 -166s-165 73 -165 166v552h102v-542c0 -50 27 -74 63 -74s63 24 63 74v542h102zM188 885l90 -141h-66l-132 141h108z" />
    <glyph glyph-name="Yacute" unicode="&#xdd;" horiz-adv-x="388" 
d="M143 0v301l-140 411h108l82 -283h2l82 283h108l-140 -411v-301h-102zM129 744l90 141h108l-132 -141h-66z" />
    <glyph glyph-name="Ydieresis" unicode="&#x178;" horiz-adv-x="388" 
d="M143 0v301l-140 411h108l82 -283h2l82 283h108l-140 -411v-301h-102zM68 756v102h90v-102h-90zM230 756v102h90v-102h-90z" />
    <glyph glyph-name="Zcaron" unicode="&#x17d;" horiz-adv-x="333" 
d="M15 0v90l192 526h-182v96h293v-81l-196 -535h196v-96h-303zM312 885l-98 -141h-94l-98 141h78l67 -95l67 95h78z" />
    <glyph glyph-name="aacute" unicode="&#xe1;" 
d="M235 0v52h-2c-27 -37 -49 -58 -98 -58c-47 0 -110 23 -110 135c0 116 33 172 161 172c14 0 28 -2 49 -3v53c0 34 -13 60 -51 60c-26 0 -52 -18 -58 -51h-99c3 45 19 83 46 110s65 43 111 43c85 0 153 -54 153 -160v-353h-102zM235 149v69c-11 2 -19 3 -28 3
c-44 0 -80 -18 -80 -72c0 -39 20 -65 53 -65c34 0 55 24 55 65zM120 574l90 141h108l-132 -141h-66z" />
    <glyph glyph-name="acircumflex" unicode="&#xe2;" 
d="M235 0v52h-2c-27 -37 -49 -58 -98 -58c-47 0 -110 23 -110 135c0 116 33 172 161 172c14 0 28 -2 49 -3v53c0 34 -13 60 -51 60c-26 0 -52 -18 -58 -51h-99c3 45 19 83 46 110s65 43 111 43c85 0 153 -54 153 -160v-353h-102zM235 149v69c-11 2 -19 3 -28 3
c-44 0 -80 -18 -80 -72c0 -39 20 -65 53 -65c34 0 55 24 55 65zM40 574l98 141h94l98 -141h-78l-67 95l-67 -95h-78z" />
    <glyph glyph-name="adieresis" unicode="&#xe4;" 
d="M235 0v52h-2c-27 -37 -49 -58 -98 -58c-47 0 -110 23 -110 135c0 116 33 172 161 172c14 0 28 -2 49 -3v53c0 34 -13 60 -51 60c-26 0 -52 -18 -58 -51h-99c3 45 19 83 46 110s65 43 111 43c85 0 153 -54 153 -160v-353h-102zM235 149v69c-11 2 -19 3 -28 3
c-44 0 -80 -18 -80 -72c0 -39 20 -65 53 -65c34 0 55 24 55 65zM59 586v102h90v-102h-90zM221 586v102h90v-102h-90z" />
    <glyph glyph-name="agrave" unicode="&#xe0;" 
d="M235 0v52h-2c-27 -37 -49 -58 -98 -58c-47 0 -110 23 -110 135c0 116 33 172 161 172c14 0 28 -2 49 -3v53c0 34 -13 60 -51 60c-26 0 -52 -18 -58 -51h-99c3 45 19 83 46 110s65 43 111 43c85 0 153 -54 153 -160v-353h-102zM235 149v69c-11 2 -19 3 -28 3
c-44 0 -80 -18 -80 -72c0 -39 20 -65 53 -65c34 0 55 24 55 65zM160 715l90 -141h-66l-132 141h108z" />
    <glyph glyph-name="aring" unicode="&#xe5;" 
d="M235 0v52h-2c-27 -37 -49 -58 -98 -58c-47 0 -110 23 -110 135c0 116 33 172 161 172c14 0 28 -2 49 -3v53c0 34 -13 60 -51 60c-26 0 -52 -18 -58 -51h-99c3 45 19 83 46 110s65 43 111 43c85 0 153 -54 153 -160v-353h-102zM235 149v69c-11 2 -19 3 -28 3
c-44 0 -80 -18 -80 -72c0 -39 20 -65 53 -65c34 0 55 24 55 65zM83 660c0 56 46 102 102 102s102 -47 102 -102c0 -56 -46 -102 -102 -102s-102 47 -102 102zM124 660c0 -34 27 -61 61 -61s61 27 61 61s-27 61 -61 61s-61 -27 -61 -61z" />
    <glyph glyph-name="atilde" unicode="&#xe3;" 
d="M235 0v52h-2c-27 -37 -49 -58 -98 -58c-47 0 -110 23 -110 135c0 116 33 172 161 172c14 0 28 -2 49 -3v53c0 34 -13 60 -51 60c-26 0 -52 -18 -58 -51h-99c3 45 19 83 46 110s65 43 111 43c85 0 153 -54 153 -160v-353h-102zM235 149v69c-11 2 -19 3 -28 3
c-44 0 -80 -18 -80 -72c0 -39 20 -65 53 -65c34 0 55 24 55 65zM304 699h51c-12 -61 -37 -111 -101 -111c-31 0 -121 40 -144 40c-28 0 -43 -19 -44 -45h-51c12 61 37 111 101 111c31 0 122 -40 144 -40c28 0 43 19 44 45z" />
    <glyph glyph-name="eacute" unicode="&#xe9;" 
d="M337 215h-202v-69c0 -32 19 -50 50 -50c39 0 48 29 50 51h102c0 -42 -15 -81 -41 -108c-27 -28 -64 -45 -111 -45c-62 0 -109 29 -133 73c-14 26 -19 62 -19 103v167c0 41 5 77 19 103c24 44 71 73 133 73c94 0 152 -69 152 -158v-140zM135 353v-58h100v58
c0 38 -19 58 -50 58s-50 -20 -50 -58zM120 574l90 141h108l-132 -141h-66z" />
    <glyph glyph-name="ecircumflex" unicode="&#xea;" 
d="M337 215h-202v-69c0 -32 19 -50 50 -50c39 0 48 29 50 51h102c0 -42 -15 -81 -41 -108c-27 -28 -64 -45 -111 -45c-62 0 -109 29 -133 73c-14 26 -19 62 -19 103v167c0 41 5 77 19 103c24 44 71 73 133 73c94 0 152 -69 152 -158v-140zM135 353v-58h100v58
c0 38 -19 58 -50 58s-50 -20 -50 -58zM40 574l98 141h94l98 -141h-78l-67 95l-67 -95h-78z" />
    <glyph glyph-name="edieresis" unicode="&#xeb;" 
d="M337 215h-202v-69c0 -32 19 -50 50 -50c39 0 48 29 50 51h102c0 -42 -15 -81 -41 -108c-27 -28 -64 -45 -111 -45c-62 0 -109 29 -133 73c-14 26 -19 62 -19 103v167c0 41 5 77 19 103c24 44 71 73 133 73c94 0 152 -69 152 -158v-140zM135 353v-58h100v58
c0 38 -19 58 -50 58s-50 -20 -50 -58zM59 586v102h90v-102h-90zM221 586v102h90v-102h-90z" />
    <glyph glyph-name="egrave" unicode="&#xe8;" 
d="M337 215h-202v-69c0 -32 19 -50 50 -50c39 0 48 29 50 51h102c0 -42 -15 -81 -41 -108c-27 -28 -64 -45 -111 -45c-62 0 -109 29 -133 73c-14 26 -19 62 -19 103v167c0 41 5 77 19 103c24 44 71 73 133 73c94 0 152 -69 152 -158v-140zM135 353v-58h100v58
c0 38 -19 58 -50 58s-50 -20 -50 -58zM160 715l90 -141h-66l-132 141h108z" />
    <glyph glyph-name="iacute" unicode="&#xed;" horiz-adv-x="186" 
d="M42 0v507h102v-507h-102zM28 574l90 141h108l-132 -141h-66z" />
    <glyph glyph-name="icircumflex" unicode="&#xee;" horiz-adv-x="186" 
d="M42 0v507h102v-507h-102zM-52 574l98 141h94l98 -141h-78l-67 95l-67 -95h-78z" />
    <glyph glyph-name="idieresis" unicode="&#xef;" horiz-adv-x="186" 
d="M42 0v507h102v-507h-102zM-33 586v102h90v-102h-90zM129 586v102h90v-102h-90z" />
    <glyph glyph-name="igrave" unicode="&#xec;" horiz-adv-x="186" 
d="M42 0v507h102v-507h-102zM68 715l90 -141h-66l-132 141h108z" />
    <glyph glyph-name="ntilde" unicode="&#xf1;" horiz-adv-x="389" 
d="M42 0v507h102v-49h2c21 32 49 55 96 55c51 0 105 -33 105 -124v-389h-102v351c0 37 -18 60 -50 60c-38 0 -51 -25 -51 -70v-341h-102zM314 699h51c-12 -61 -37 -111 -101 -111c-31 0 -121 40 -144 40c-28 0 -43 -19 -44 -45h-51c12 61 37 111 101 111
c31 0 122 -40 144 -40c28 0 43 19 44 45z" />
    <glyph glyph-name="oacute" unicode="&#xf3;" 
d="M33 170v167c0 41 5 77 19 103c24 44 71 73 133 73s109 -29 133 -73c14 -26 19 -62 19 -103v-167c0 -41 -5 -77 -19 -103c-24 -44 -71 -73 -133 -73s-109 29 -133 73c-14 26 -19 62 -19 103zM135 353v-199c0 -38 19 -58 50 -58s50 20 50 58v199c0 38 -19 58 -50 58
s-50 -20 -50 -58zM120 574l90 141h108l-132 -141h-66z" />
    <glyph glyph-name="ocircumflex" unicode="&#xf4;" 
d="M33 170v167c0 41 5 77 19 103c24 44 71 73 133 73s109 -29 133 -73c14 -26 19 -62 19 -103v-167c0 -41 -5 -77 -19 -103c-24 -44 -71 -73 -133 -73s-109 29 -133 73c-14 26 -19 62 -19 103zM135 353v-199c0 -38 19 -58 50 -58s50 20 50 58v199c0 38 -19 58 -50 58
s-50 -20 -50 -58zM40 574l98 141h94l98 -141h-78l-67 95l-67 -95h-78z" />
    <glyph glyph-name="odieresis" unicode="&#xf6;" 
d="M33 170v167c0 41 5 77 19 103c24 44 71 73 133 73s109 -29 133 -73c14 -26 19 -62 19 -103v-167c0 -41 -5 -77 -19 -103c-24 -44 -71 -73 -133 -73s-109 29 -133 73c-14 26 -19 62 -19 103zM135 353v-199c0 -38 19 -58 50 -58s50 20 50 58v199c0 38 -19 58 -50 58
s-50 -20 -50 -58zM59 586v102h90v-102h-90zM221 586v102h90v-102h-90z" />
    <glyph glyph-name="ograve" unicode="&#xf2;" 
d="M33 170v167c0 41 5 77 19 103c24 44 71 73 133 73s109 -29 133 -73c14 -26 19 -62 19 -103v-167c0 -41 -5 -77 -19 -103c-24 -44 -71 -73 -133 -73s-109 29 -133 73c-14 26 -19 62 -19 103zM135 353v-199c0 -38 19 -58 50 -58s50 20 50 58v199c0 38 -19 58 -50 58
s-50 -20 -50 -58zM160 715l90 -141h-66l-132 141h108z" />
    <glyph glyph-name="otilde" unicode="&#xf5;" 
d="M33 170v167c0 41 5 77 19 103c24 44 71 73 133 73s109 -29 133 -73c14 -26 19 -62 19 -103v-167c0 -41 -5 -77 -19 -103c-24 -44 -71 -73 -133 -73s-109 29 -133 73c-14 26 -19 62 -19 103zM135 353v-199c0 -38 19 -58 50 -58s50 20 50 58v199c0 38 -19 58 -50 58
s-50 -20 -50 -58zM304 699h51c-12 -61 -37 -111 -101 -111c-31 0 -121 40 -144 40c-28 0 -43 -19 -44 -45h-51c12 61 37 111 101 111c31 0 122 -40 144 -40c28 0 43 19 44 45z" />
    <glyph glyph-name="scaron" unicode="&#x161;" horiz-adv-x="352" 
d="M323 365h-96c-1 34 -25 52 -52 52c-32 0 -50 -25 -50 -51c0 -19 5 -37 43 -52l60 -24c76 -29 100 -83 100 -143c0 -84 -64 -153 -152 -153c-80 0 -148 53 -152 153h96c4 -28 17 -57 55 -57c29 0 57 21 57 55c0 28 -12 47 -51 62l-49 18c-64 24 -103 72 -103 140
c0 86 68 148 150 148c83 0 143 -64 144 -148zM321 715l-98 -141h-94l-98 141h78l67 -95l67 95h78z" />
    <glyph glyph-name="uacute" unicode="&#xfa;" horiz-adv-x="389" 
d="M347 507v-507h-102v49h-2c-21 -32 -49 -55 -96 -55c-51 0 -105 33 -105 124v389h102v-351c0 -37 18 -60 50 -60c38 0 51 25 51 70v341h102zM130 574l90 141h108l-132 -141h-66z" />
    <glyph glyph-name="ucircumflex" unicode="&#xfb;" horiz-adv-x="389" 
d="M347 507v-507h-102v49h-2c-21 -32 -49 -55 -96 -55c-51 0 -105 33 -105 124v389h102v-351c0 -37 18 -60 50 -60c38 0 51 25 51 70v341h102zM50 574l98 141h94l98 -141h-78l-67 95l-67 -95h-78z" />
    <glyph glyph-name="udieresis" unicode="&#xfc;" horiz-adv-x="389" 
d="M347 507v-507h-102v49h-2c-21 -32 -49 -55 -96 -55c-51 0 -105 33 -105 124v389h102v-351c0 -37 18 -60 50 -60c38 0 51 25 51 70v341h102zM69 586v102h90v-102h-90zM231 586v102h90v-102h-90z" />
    <glyph glyph-name="ugrave" unicode="&#xf9;" horiz-adv-x="389" 
d="M347 507v-507h-102v49h-2c-21 -32 -49 -55 -96 -55c-51 0 -105 33 -105 124v389h102v-351c0 -37 18 -60 50 -60c38 0 51 25 51 70v341h102zM170 715l90 -141h-66l-132 141h108z" />
    <glyph glyph-name="yacute" unicode="&#xfd;" horiz-adv-x="352" 
d="M-1 507h108l70 -316h2l69 316h105l-146 -595c-22 -91 -80 -117 -141 -117h-28v96h23c41 0 54 14 77 132zM111 574l90 141h108l-132 -141h-66z" />
    <glyph glyph-name="ydieresis" unicode="&#xff;" horiz-adv-x="352" 
d="M-1 507h108l70 -316h2l69 316h105l-146 -595c-22 -91 -80 -117 -141 -117h-28v96h23c41 0 54 14 77 132zM50 586v102h90v-102h-90zM212 586v102h90v-102h-90z" />
    <glyph glyph-name="zcaron" unicode="&#x17e;" horiz-adv-x="315" 
d="M17 0v81l165 336h-152v90h268v-81l-165 -330h165v-96h-281zM303 715l-98 -141h-94l-98 141h78l67 -95l67 95h78z" />
    </font>
</defs>
</svg>
