<?xml version="1.0" encoding="utf-8"?>
<!-- Generator: Adobe Illustrator 18.1.0, SVG Export Plug-In . SVG Version: 6.00 Build 0)  -->
<!DOCTYPE svg PUBLIC "-//W3C//DTD SVG 1.1//EN" "http://www.w3.org/Graphics/SVG/1.1/DTD/svg11.dtd">
<svg version="1.1" id="Layer_1" xmlns="http://www.w3.org/2000/svg" xmlns:xlink="http://www.w3.org/1999/xlink" x="0px" y="0px"
	 viewBox="4.2 93.9 192.8 12.4" enable-background="new 4.2 93.9 192.8 12.4" xml:space="preserve">
<g id="Layer_1_2_">
	<g id="Layer_1_1_">
		<path fill="#646464" d="M39.7,102v-0.9h1.6c0.1,0,0.2-0.1,0.2-0.1v-0.1c0-0.1-0.1-0.2-0.2-0.2h-0.8c-0.1,0-0.3,0-0.4-0.1
			c-0.3-0.2-0.4-0.4-0.4-0.7v-0.7c0-0.1,0-0.1,0-0.2c0.1-0.4,0.4-0.6,0.8-0.6h1.8l0,0.9h-1.6c0,0,0,0-0.1,0
			c-0.1,0.1-0.1,0.1-0.1,0.1v0.1c0,0.1,0.1,0.2,0.2,0.2h0.8c0.2,0,0.4,0.1,0.5,0.2s0.2,0.3,0.2,0.5v0.6c0,0.2-0.1,0.3-0.1,0.4
			c-0.1,0.1-0.2,0.2-0.3,0.3c-0.1,0.1-0.2,0.1-0.4,0.1C41.5,102,39.7,102,39.7,102L39.7,102z M43,102v-2.7c0-0.1,0-0.1,0-0.2
			c0.1-0.4,0.3-0.7,0.8-0.7H45c0.5,0,0.8,0.2,0.8,0.7c0,0.1,0,0.1,0,0.2v2.7H45v-2.4c0-0.1-0.1-0.2-0.3-0.2h-0.5
			c-0.2,0-0.3,0.1-0.3,0.2v2.4L43,102C43,102,43,102,43,102L43,102z M46.5,101.3v-0.7c0-0.3,0.1-0.5,0.2-0.6
			c0.2-0.2,0.4-0.2,0.6-0.2h1.2v-0.2c0-0.1-0.1-0.1-0.2-0.2h-1.8v-0.9h2c0,0,0.1,0,0.2,0c0.4,0.1,0.7,0.3,0.7,0.7c0,0.1,0,0.1,0,0.2
			v1.8c0,0.1,0,0.1,0,0.2c0,0.2-0.1,0.4-0.3,0.5c-0.2,0.1-0.3,0.2-0.5,0.2h-1.2c-0.5,0-0.8-0.2-0.9-0.6
			C46.5,101.4,46.5,101.3,46.5,101.3L46.5,101.3z M47.4,101.1c0,0,0.1,0.1,0.1,0.1h0.7c0.2,0,0.2-0.1,0.2-0.2v-0.2
			c0-0.1,0-0.2-0.1-0.2c0,0-0.1,0-0.1,0h-0.8c-0.1,0-0.1,0.1-0.1,0.2v0.3C47.4,101,47.4,101,47.4,101.1L47.4,101.1z M50,103.3v-3.9
			c0-0.1,0-0.1,0-0.2c0.1-0.4,0.3-0.7,0.7-0.7c0.1,0,0.1,0,0.1,0H52c0.1,0,0.1,0,0.2,0c0.4,0.1,0.7,0.4,0.7,0.9v1.8
			c0,0.2-0.1,0.3-0.2,0.4c0,0-0.1,0.1-0.1,0.1c-0.2,0.2-0.4,0.2-0.6,0.2h-1.2v1.3H50L50,103.3z M50.9,100.9c0,0.1,0.1,0.2,0.2,0.2
			h0.7c0.1,0,0.1,0,0.2-0.1c0-0.1,0.1-0.1,0.1-0.1v-1.3c0-0.1-0.1-0.2-0.2-0.2h-0.7c-0.1,0-0.2,0.1-0.2,0.2c0,0,0,0.1,0,0.1
			L50.9,100.9L50.9,100.9z M53.5,102v-4c0-0.2,0.1-0.4,0.3-0.6c0.2-0.1,0.4-0.2,0.7-0.2H55v0.8h-0.4c-0.2,0-0.2,0.1-0.2,0.3v0.2H55
			v0.9h-0.6v2.6L53.5,102L53.5,102z M55.3,101.3v-0.7c0-0.3,0.1-0.5,0.2-0.6c0.2-0.2,0.4-0.2,0.6-0.2h1.2v-0.2
			c0-0.1-0.1-0.1-0.2-0.2h-1.8v-0.9h2c0,0,0.1,0,0.2,0c0.4,0.1,0.7,0.3,0.7,0.7c0,0.1,0,0.1,0,0.2v1.8c0,0.1,0,0.1,0,0.2
			c0,0.2-0.1,0.4-0.3,0.5c-0.2,0.1-0.3,0.2-0.5,0.2h-1.2c-0.5,0-0.8-0.2-0.9-0.6C55.4,101.4,55.4,101.3,55.3,101.3L55.3,101.3z
			 M56.3,101.1c0,0,0.1,0.1,0.1,0.1h0.8c0.2,0,0.2-0.1,0.2-0.2v-0.2c0-0.1,0-0.2-0.1-0.2c0,0-0.1,0-0.1,0h-0.8
			c-0.1,0-0.1,0.1-0.1,0.2v0.3C56.2,101,56.2,101,56.3,101.1z M58.8,102v-0.9h1.6c0.1,0,0.2-0.1,0.2-0.1v-0.1c0-0.1-0.1-0.2-0.2-0.2
			h-0.8c-0.1,0-0.3,0-0.4-0.1c-0.3-0.2-0.4-0.4-0.4-0.7v-0.7c0-0.1,0-0.1,0-0.2c0.1-0.4,0.4-0.6,0.8-0.6h1.8l0,0.9h-1.6
			c0,0,0,0-0.1,0c-0.1,0.1-0.1,0.1-0.1,0.1v0.1c0,0.1,0.1,0.2,0.2,0.2h0.8c0.2,0,0.4,0.1,0.5,0.2c0.2,0.2,0.2,0.3,0.2,0.5v0.6
			c0,0.2-0.1,0.3-0.1,0.4c-0.1,0.1-0.2,0.2-0.3,0.3c-0.1,0.1-0.2,0.1-0.4,0.1L58.8,102L58.8,102z M62.1,102v-4.8h0.9v1.3h0.6v0.9
			h-0.6v2.6H62.1z"/>
		<path opacity="0.34" fill="#646464" enable-background="new    " d="M39.7,102v-0.9h1.6c0.1,0,0.2-0.1,0.2-0.1v-0.1
			c0-0.1-0.1-0.2-0.2-0.2h-0.8c-0.1,0-0.3,0-0.4-0.1c-0.3-0.2-0.4-0.4-0.4-0.7v-0.7c0-0.1,0-0.1,0-0.2c0.1-0.4,0.4-0.6,0.8-0.6h1.8
			l0,0.9h-1.6c0,0,0,0-0.1,0c-0.1,0.1-0.1,0.1-0.1,0.1v0.1c0,0.1,0.1,0.2,0.2,0.2h0.8c0.2,0,0.4,0.1,0.5,0.2s0.2,0.3,0.2,0.5v0.6
			c0,0.2-0.1,0.3-0.1,0.4c-0.1,0.1-0.2,0.2-0.3,0.3c-0.1,0.1-0.2,0.1-0.4,0.1C41.5,102,39.7,102,39.7,102L39.7,102z M43,102v-2.7
			c0-0.1,0-0.1,0-0.2c0.1-0.4,0.3-0.7,0.8-0.7H45c0.5,0,0.8,0.2,0.8,0.7c0,0.1,0,0.1,0,0.2v2.7H45v-2.4c0-0.1-0.1-0.2-0.3-0.2h-0.5
			c-0.2,0-0.3,0.1-0.3,0.2v2.4L43,102C43,102,43,102,43,102L43,102z M46.5,101.3v-0.7c0-0.3,0.1-0.5,0.2-0.6
			c0.2-0.2,0.4-0.2,0.6-0.2h1.2v-0.2c0-0.1-0.1-0.1-0.2-0.2h-1.8v-0.9h2c0,0,0.1,0,0.2,0c0.4,0.1,0.7,0.3,0.7,0.7c0,0.1,0,0.1,0,0.2
			v1.8c0,0.1,0,0.1,0,0.2c0,0.2-0.1,0.4-0.3,0.5c-0.2,0.1-0.3,0.2-0.5,0.2h-1.2c-0.5,0-0.8-0.2-0.9-0.6
			C46.5,101.4,46.5,101.3,46.5,101.3L46.5,101.3z M47.4,101.1c0,0,0.1,0.1,0.1,0.1h0.7c0.2,0,0.2-0.1,0.2-0.2v-0.2
			c0-0.1,0-0.2-0.1-0.2c0,0-0.1,0-0.1,0h-0.8c-0.1,0-0.1,0.1-0.1,0.2v0.3C47.4,101,47.4,101,47.4,101.1L47.4,101.1z M50,103.3v-3.9
			c0-0.1,0-0.1,0-0.2c0.1-0.4,0.3-0.7,0.7-0.7c0.1,0,0.1,0,0.1,0H52c0.1,0,0.1,0,0.2,0c0.4,0.1,0.7,0.4,0.7,0.9v1.8
			c0,0.2-0.1,0.3-0.2,0.4c0,0-0.1,0.1-0.1,0.1c-0.2,0.2-0.4,0.2-0.6,0.2h-1.2v1.3H50L50,103.3z M50.9,100.9c0,0.1,0.1,0.2,0.2,0.2
			h0.7c0.1,0,0.1,0,0.2-0.1c0-0.1,0.1-0.1,0.1-0.1v-1.3c0-0.1-0.1-0.2-0.2-0.2h-0.7c-0.1,0-0.2,0.1-0.2,0.2c0,0,0,0.1,0,0.1
			L50.9,100.9L50.9,100.9z M53.5,102v-4c0-0.2,0.1-0.4,0.3-0.6c0.2-0.1,0.4-0.2,0.7-0.2H55v0.8h-0.4c-0.2,0-0.2,0.1-0.2,0.3v0.2H55
			v0.9h-0.6v2.6L53.5,102L53.5,102z M55.3,101.3v-0.7c0-0.3,0.1-0.5,0.2-0.6c0.2-0.2,0.4-0.2,0.6-0.2h1.2v-0.2
			c0-0.1-0.1-0.1-0.2-0.2h-1.8v-0.9h2c0,0,0.1,0,0.2,0c0.4,0.1,0.7,0.3,0.7,0.7c0,0.1,0,0.1,0,0.2v1.8c0,0.1,0,0.1,0,0.2
			c0,0.2-0.1,0.4-0.3,0.5c-0.2,0.1-0.3,0.2-0.5,0.2h-1.2c-0.5,0-0.8-0.2-0.9-0.6C55.4,101.4,55.4,101.3,55.3,101.3L55.3,101.3z
			 M56.3,101.1c0,0,0.1,0.1,0.1,0.1h0.8c0.2,0,0.2-0.1,0.2-0.2v-0.2c0-0.1,0-0.2-0.1-0.2c0,0-0.1,0-0.1,0h-0.8
			c-0.1,0-0.1,0.1-0.1,0.2v0.3C56.2,101,56.2,101,56.3,101.1z M58.8,102v-0.9h1.6c0.1,0,0.2-0.1,0.2-0.1v-0.1c0-0.1-0.1-0.2-0.2-0.2
			h-0.8c-0.1,0-0.3,0-0.4-0.1c-0.3-0.2-0.4-0.4-0.4-0.7v-0.7c0-0.1,0-0.1,0-0.2c0.1-0.4,0.4-0.6,0.8-0.6h1.8l0,0.9h-1.6
			c0,0,0,0-0.1,0c-0.1,0.1-0.1,0.1-0.1,0.1v0.1c0,0.1,0.1,0.2,0.2,0.2h0.8c0.2,0,0.4,0.1,0.5,0.2c0.2,0.2,0.2,0.3,0.2,0.5v0.6
			c0,0.2-0.1,0.3-0.1,0.4c-0.1,0.1-0.2,0.2-0.3,0.3c-0.1,0.1-0.2,0.1-0.4,0.1L58.8,102L58.8,102z M62.1,102v-4.8h0.9v1.3h0.6v0.9
			h-0.6v2.6H62.1z"/>
	</g>
	<g id="Layer_2_1_">
		<path fill="#646464" d="M189.8,101.4c0.3,0.6,0.6,1.2,1,1.8c0,0.1,0.2,0.1,0.3,0.1c1.5,0,2.9,0,4.4,0h0.4
			c-0.3,0.5-0.6,0.9-0.8,1.4c-0.2,0.5-0.5,0.6-1,0.6c-1.4,0-2.7,0-4.1,0c-0.2,0-0.3,0-0.4-0.2c-0.2-0.4-0.4-0.8-0.7-1.1
			c0,0-0.1-0.1-0.1-0.2c-0.2,0.5-0.5,0.9-0.7,1.3c0,0.1-0.2,0.2-0.3,0.2c-0.9,0-1.9,0-2.8,0c-0.1,0-0.2-0.1-0.3-0.2
			c-0.5-0.9-1.1-1.8-1.6-2.7c-0.5-0.9-1.1-1.8-1.6-2.7c-0.2-0.3-0.3-0.5-0.5-0.8c0-0.1,0-0.3,0-0.4c0.3-0.6,0.7-1.1,1.1-1.7
			c0.2,0.3,0.3,0.6,0.5,0.8c0.5,0.8,1,1.7,1.4,2.5c0.6,1,1.1,1.9,1.7,2.9c0.1,0.2,0.2,0.2,0.4,0.2c0.6,0,1.2,0,1.8,0
			c0.4,0,0.5-0.1,0.7-0.4c0.3-0.5,0.5-1,0.8-1.5c0.4-0.8,0.8-1.6,1.3-2.4c0-0.1,0.1-0.1,0.1-0.2c0.5,0.8,1,1.7,1.5,2.6
			C191.5,101.4,190.7,101.4,189.8,101.4L189.8,101.4z"/>
		<path fill="#646464" d="M182.3,96.7c0.4-0.7,0.8-1.3,1.1-1.9c0.1-0.1,0.2-0.2,0.3-0.2c0.6,0,1.2,0,1.8,0c0.2,0,0.3,0.1,0.4,0.2
			c0.6,0.9,1.1,1.9,1.7,2.8c0.1,0.2,0.2,0.4,0.3,0.6c0.4-0.7,0.8-1.4,1.1-2.1c0.2-0.5,0.5-0.9,0.7-1.4c0-0.1,0.1-0.1,0.2-0.1
			c1,0,2,0,3.1,0c0.1,0,0.2,0.1,0.2,0.2c0.4,0.7,0.8,1.4,1.3,2.1l1.3,2.2c0.4,0.6,0.7,1.2,1.1,1.8c0.1,0.1,0.1,0.3,0,0.3
			c-0.3,0.6-0.6,1.2-1,1.8c-0.4-0.6-0.8-1.2-1.1-1.8c-0.4-0.7-0.8-1.3-1.2-2c-0.5-0.8-0.9-1.5-1.4-2.3c-0.1-0.1-0.2-0.2-0.3-0.2
			c-0.7,0-1.5,0-2.2,0c-0.2,0-0.3,0.1-0.4,0.3c-0.7,1.4-1.5,2.7-2.2,4.1c-0.3-0.5-0.6-1-0.9-1.5l-0.9-1.6c-0.2-0.4-0.5-0.8-0.7-1.2
			c-0.1-0.2-0.2-0.2-0.4-0.2C183.7,96.7,183,96.7,182.3,96.7L182.3,96.7z"/>
	</g>
</g>
<g id="Layer_2">
	<path fill="#646464" d="M134.5,98.4c0,0,0.3-0.2,0.3-0.6c0,0,0-0.2,0-0.5c0,0,0-0.2-0.1-0.3c0,0-0.3,0-0.6,0.1c0,0-0.8,0.2-2,0.9
		c0,0-0.5,0.3-0.6,0.4c0,0-0.2,0.1,0,0.2c0,0,0.2,0,0.4,0h0.1c0,0-0.3,0.2-0.5,0.3c0,0-0.5,0.3-0.6,0.6c0,0-0.2,0.3-0.2,0.8
		c0,0,0,0.7,0.4,1.4c0,0,0.1,0.2,0.2,0.3c0,0,0.1,0.1,0.3,0.1c0,0,1.1,0.1,1.7-0.1c0,0,0.9-0.1,1-0.5c0,0,0-0.2,0-0.3c0,0,0,0,0.1,0
		c0,0,0.5-0.2,0.6-0.5c0,0,0-0.1,0.1-0.3c0,0,0-0.2,0-0.2c0,0,0-0.1-0.1,0c0,0-0.5,0.1-0.8,0.2c0,0-1.1,0.2-2,0.1c0,0-0.5,0-0.3-0.3
		c0,0,0.2-0.2,0.6-0.5c0,0,0.7-0.4,1.2-0.6C133.4,98.8,134.2,98.4,134.5,98.4L134.5,98.4z M137.8,102.1l-0.1-0.5
		c-0.1-0.5-0.1-0.9-0.1-0.9c0-0.3,0.1-0.8,0.1-0.8c0-0.2,0-0.2,0-0.2c-0.3-0.4-0.6-0.8-0.6-0.8c-0.1-0.1-0.2,0-0.2,0l-0.1,0
		c-0.1,0.1-0.2,0-0.2,0c-0.2-0.1-0.2,0-0.2,0c-0.1,0.1-0.5,0.4-0.5,0.4c-0.1,0.1,0,0.2,0,0.2c0,0,0,0.1,0,0.1
		c-0.1,0.1-0.5,0.8-0.5,0.8c-0.2,0.2-0.3,0.6-0.3,0.6c-0.1,0.2-0.1,0.8-0.1,0.8c0,0.2,0.2,0.3,0.2,0.3c0.1,0.2,0.3,0.1,0.3,0.1
		c0.1,0,0.5-0.4,0.5-0.4c0.1-0.1,0.6-0.5,0.6-0.5l0,0c0.1,0.2,0.5,0.8,0.5,0.8c0.1,0.1,0.1,0.1,0.1,0.1c0.1,0,0.1,0,0.1,0l0.3,0.1
		C137.9,102.3,137.8,102.1,137.8,102.1L137.8,102.1z M136.4,100.3c0,0-0.5,0.4-0.6,0.5c0,0-0.1,0.2-0.1,0c0,0,0-0.2,0.2-0.5
		c0,0,0.1-0.2,0.2-0.3c0,0,0.1,0,0.2,0.1C136.3,100.1,136.5,100.2,136.4,100.3z M139.8,97.1c0,0,0.1-0.1,0.2-0.1h0.2
		c0,0,0.1,0,0.1,0.2l0,0.5c0,0,0,0.1-0.1,0.4c0,0-0.1,0.2-0.1,0.3l-0.5,1.4c0,0,0,0.1,0,0.1c0,0,0.2,0.1,0.2,0.2c0,0,0,0,0.1,0
		c0,0,0.2-0.1,0.2,0.2c0,0,0,0.2-0.2,0.6c0,0,0.1,1.2,0.1,1.6c0,0,0,0.3,0,0.5c0,0,0,0.2-0.2,0.3c0,0-0.4,0.2-0.7,0.2
		c0,0-0.1,0-0.2-0.1c0,0-0.3-0.4-0.5-0.9c0,0-0.2-0.4-0.2-0.6c0,0-0.1-0.4-0.1-0.8c0,0,0-0.6,0.1-1c0,0,0.2-0.8,0.6-1.6
		c0,0,0.5-0.9,0.6-1.2C139.6,97.4,139.8,97.1,139.8,97.1L139.8,97.1z"/>
	<path fill="#646464" d="M139.5,102.2c0,0.2,0.1,0.3,0.1,0.3c0.1,0.1,0.2-0.2,0.2-0.2l0-1c0-0.1-0.1-0.1-0.1-0.1h-0.1
		c-0.1,0-0.1,0.1-0.1,0.1C139.4,101.6,139.5,102.2,139.5,102.2L139.5,102.2z M142.8,101c0,0-0.3,0.1-0.6,0c0,0-0.2-0.1-0.3-0.2
		c0,0,0,0,0,0c0,0,0.8-0.7,1-1c0,0,0.2-0.3,0.2-0.6c0,0-0.1-0.2-0.6-0.3c0,0-0.3-0.1-0.6,0c0,0-0.1,0-0.2,0.1c0,0-0.5,0.3-0.9,1
		c0,0-0.3,0.4-0.3,1c0,0,0,0.3,0.2,0.6c0,0,0.3,0.4,0.8,0.5c0,0,0.5,0.1,0.9-0.1c0,0,0.2-0.1,0.2-0.3c0,0,0-0.1,0.1-0.2
		c0,0,0-0.1,0.1-0.1c0,0,0.2-0.1,0.2-0.2V101C143,101,143,100.9,142.8,101L142.8,101z M141.7,100.2c0,0,0-0.2,0.2-0.4
		c0,0,0.1-0.2,0.2-0.3c0,0,0.2,0,0.3,0.1c0,0-0.1,0.1-0.3,0.4C142,100,141.7,100.2,141.7,100.2L141.7,100.2z M149.7,101.1
		c0-0.2-0.2-0.2-0.2-0.2c-0.2,0-0.5-0.1-0.5-0.1c-0.6-0.2-1.3-0.7-1.3-0.7c-0.4-0.2-0.6-0.6-0.6-0.6c0.3,0,1.2-0.1,1.2-0.1
		c0.4,0,0.8-0.1,0.8-0.1c0.6-0.1,0.5-0.5,0.5-0.5c0-0.2-0.1-0.6-0.1-0.6c-0.1-0.1-0.1-0.4-0.1-0.4c-0.1-0.3-0.5-0.5-0.5-0.5
		c-0.5-0.2-1.2-0.4-1.2-0.4c-0.4-0.1-0.9-0.1-0.9-0.1c-0.1,0-0.3,0.1-0.3,0.1l-0.5,0.1c-0.2,0.1-0.4,0.1-0.4,0.1
		c-0.2,0-0.2,0.2-0.2,0.2c0,0.1,0,0.3,0,0.3c0,0.2,0.2,0.2,0.2,0.1l0.2,0c0.1,0,0.1,0.1,0.1,0.1l-0.1,0.5c-0.1,0.5-0.2,1-0.2,1.6v0
		c-0.1,0.6,0.1,1.4,0.1,1.4c0.1,0.2,0.2,0.3,0.2,0.3c0.1,0.1,0.3,0.2,0.3,0.2c0.3,0.2,0.3-0.1,0.3-0.1l0.1-0.6c0-0.2,0-0.2,0-0.2
		c0.3,0.2,1,0.6,1,0.6c0.5,0.3,1,0.3,1,0.3c0.2,0,0.2,0,0.2,0c0.2-0.2,0.5-0.4,0.5-0.4c0.1-0.1,0.3-0.1,0.3-0.1
		C149.8,101.3,149.7,101.1,149.7,101.1L149.7,101.1z M147,98.3c0.1,0,0.3,0,0.4,0c0.5,0.1,1.1,0.2,1.1,0.2c0.1,0.1,0.1,0.1,0.1,0.1
		c0,0.1-0.5,0.2-0.5,0.2c-0.5,0.2-1.3,0.3-1.3,0.3C147,98.8,147,98.3,147,98.3L147,98.3z M150.5,98.6L151,98c0,0,0.1-0.1,0.2-0.1
		l0.5-0.2c0,0,0.1-0.1,0.2,0.1l0.1,0.3c0,0,0.1,0.1-0.1,0.3l-0.8,0.6c0,0-0.1,0.1-0.3,0l-0.3-0.2C150.5,98.8,150.4,98.7,150.5,98.6z
		 M151.3,99.4c0,0,0.2-0.1,0.3-0.1c0,0,0,0,0.1,0.1c0,0,0.1,0.1,0.1,0.3c0,0-0.1,0.7-0.2,1.1c0,0-0.2,0.9-0.2,1c0,0-0.1,0.3-0.4,0.2
		c0,0-0.2-0.1-0.4-0.2c0,0-0.1-0.1-0.2-0.2c0,0-0.1-0.3-0.1-0.4c0,0,0-0.1-0.1-0.1h-0.1c0,0-0.1,0-0.1-0.2c0,0,0-0.3,0-0.4
		c0,0,0-0.2,0.2-0.4C150.2,100.2,150.5,99.8,151.3,99.4z M154.5,99.4c-0.5-0.5-0.9-0.5-0.9-0.5c-0.4-0.1-0.6,0.1-0.6,0.1l-0.6,0.6
		c-0.1,0.1,0,0.2,0,0.2c0.1,0.1,0,0.3,0,0.3c-0.1,0.3-0.1,0.9-0.1,0.9c0,0.3,0,0.8,0,0.8c0,0.2,0.2,0.3,0.2,0.3
		c0.3,0.2,0.7-0.1,0.7-0.1c0.5-0.3,0.7-0.6,0.7-0.6c0.5-0.8,0.6-1.3,0.6-1.3C154.7,99.6,154.5,99.4,154.5,99.4L154.5,99.4z
		 M153.5,100.5c0,0-0.3,0.3-0.4,0.2c0,0-0.1-0.1,0-0.5c0,0,0-0.1,0-0.1C153,100.2,153.4,100.3,153.5,100.5
		C153.5,100.4,153.5,100.5,153.5,100.5L153.5,100.5z"/>
</g>
<path fill="#646464" d="M98.2,98.3v0.4c0.2-0.1,0.4-0.1,0.6-0.2v-0.4c-0.1,0-0.1,0-0.2,0v-1.5c0.1,0,0.2-0.1,0.3-0.1l0.2,1.7v0
	c0.2,0,0.4-0.1,0.6-0.1V98c-0.1,0-0.2,0-0.3,0l-0.2-1.4l0.4-0.1v-1.1c-0.5,0.1-1,0.1-1.5,0.3V96c0,0,0.1,0,0.1,0v2.3
	C98.2,98.3,98.2,98.3,98.2,98.3L98.2,98.3z M99.3,95.8v0.5c-0.2,0-0.5,0.1-0.7,0.1v-0.5C98.8,95.9,99.1,95.8,99.3,95.8z"/>
<path fill="#646464" d="M103.5,95c-0.8-0.2-1.6-0.3-2.5-0.4V95h0.1v3h-0.8v-3h0.1v-0.4c-0.8,0-1.7,0.1-2.5,0.4v0.4
	c0.6-0.2,1.3-0.3,2-0.3v3.3c0.2,0,0.5,0,0.7,0c0.2,0,0.5,0,0.7,0V95c0.7,0.1,1.3,0.2,2,0.3L103.5,95L103.5,95z"/>
<path fill="#646464" d="M103.4,96.3v-0.6c-0.5-0.1-1-0.2-1.5-0.3v0.6c0.1,0,0.2,0,0.4,0v-0.3c0.1,0,0.2,0,0.2,0v2.3
	c-0.1,0-0.1,0-0.2,0v0.4c0.2,0,0.5,0.1,0.7,0.1v-0.4c-0.1,0-0.1,0-0.2,0v-2.3c0.1,0,0.2,0,0.2,0.1v0.3
	C103.1,96.3,103.2,96.3,103.4,96.3L103.4,96.3z M103.8,95.5c0.1,0,0.1,0.1,0.2,0.1v0.8c0,0-0.1,0-0.1,0v0.4c0,0,0.1,0,0.1,0v1.8
	c-0.1,0-0.1-0.1-0.2-0.1v0.4c0.5,0.2,1,0.3,1.5,0.6l0-0.6c-0.1-0.1-0.2-0.1-0.3-0.2v0.2c-0.2-0.1-0.4-0.2-0.6-0.2v-1.8l0.4,0.2v-0.4
	l-0.4-0.2v-0.8c0.2,0.1,0.4,0.2,0.6,0.3v0.3c0.1,0.1,0.2,0.1,0.3,0.2l0-0.7c-0.5-0.2-1-0.4-1.5-0.6V95.5L103.8,95.5z M99.6,94
	c-1.3,0.1-2.5,0.5-3.6,1.1l0,0.4c1.1-0.6,2.4-1,3.6-1.1V94L99.6,94z M101.9,94v0.4c1.3,0.1,2.5,0.5,3.6,1.1l0-0.4
	C104.4,94.5,103.2,94.1,101.9,94L101.9,94z M97.8,99.7v-0.6c-0.5,0.2-1,0.3-1.5,0.6v0l0,1.1h0c0.4,0,0.8,0.1,1.1,0.1v1.9
	c-0.3-0.1-0.5-0.1-0.8-0.2l0-1.1c0.1,0,0.2-0.1,0.3-0.1v-0.4c-0.2,0.1-0.4,0.2-0.6,0.3l0,1.6c0.5,0.1,1,0.2,1.5,0.3v-2.7
	c-0.4-0.1-0.8-0.1-1.1-0.2l0-0.6c0.3-0.1,0.5-0.2,0.8-0.3v0.2C97.6,99.8,97.7,99.8,97.8,99.7L97.8,99.7z M100.8,105.9
	c-0.7-0.6-1.5-1.1-2.5-1.5c-0.6-0.2-1.3-0.4-2.1-0.5l0,0.4c0.7,0.1,1.3,0.3,1.9,0.5c1,0.4,1.8,0.9,2.5,1.5l0.1,0.1l0.1-0.1
	c0.7-0.6,1.5-1.1,2.5-1.5c0.6-0.2,1.2-0.4,1.9-0.5l0-0.4c-0.7,0.1-1.4,0.3-2,0.5C102.3,104.8,101.4,105.3,100.8,105.9L100.8,105.9z"
	/>
<path fill="#646464" d="M99.6,104.8v-0.2c-0.1-0.1-0.2-0.3-0.3-0.6c0.1,0.1,0.2,0.1,0.3,0.2v-4.6c-0.6,0.1-1.1,0.2-1.7,0.3v0.4
	c0.1,0,0.1,0,0.2,0v3.3c0.3,0.1,0.6,0.2,0.9,0.3c0,0.1,0.1,0.2,0.1,0.3c-0.9-0.4-1.8-0.7-2.9-0.8l0,0.4c0.7,0.1,1.3,0.2,1.9,0.4
	C98.6,104.3,99.1,104.5,99.6,104.8z M98.5,103.2V100c0.3-0.1,0.6-0.1,0.8-0.2v3.7l-0.1-0.1c0-0.2-0.1-0.3-0.1-0.5
	c-0.1,0-0.2-0.1-0.3-0.1c0,0.2,0,0.4,0.1,0.5C98.8,103.3,98.6,103.3,98.5,103.2L98.5,103.2z M100,104.6v0.4c0.2,0.1,0.4,0.3,0.6,0.4
	l0.1,0.1l0.1-0.1c0.2-0.2,0.4-0.3,0.6-0.4v-0.4c-0.3,0.2-0.5,0.3-0.7,0.5C100.5,104.9,100.3,104.8,100,104.6L100,104.6z"/>
<path fill="#646464" d="M103.5,99.1c-0.8-0.2-1.6-0.3-2.5-0.4v0.4h0.1v5c-0.1,0.1-0.3,0.2-0.4,0.2c-0.1-0.1-0.3-0.2-0.4-0.2v-5h0.1
	v-0.4c-0.8,0-1.7,0.1-2.5,0.4v0.4c0.6-0.2,1.3-0.3,2-0.3v5.2h0c0.2,0.1,0.4,0.3,0.6,0.4l0.1,0.1l0.1-0.1c0.2-0.1,0.4-0.3,0.6-0.4
	v-5.2c0.7,0.1,1.3,0.2,2,0.3L103.5,99.1L103.5,99.1z"/>
<path fill="#646464" d="M102.2,101c0.2,0,0.5,0.1,0.7,0.1l0.3,2.1c-0.1,0-0.2,0.1-0.3,0.1v0.4c0.2-0.1,0.4-0.2,0.6-0.2l-0.4-3.3
	c0.1,0,0.1,0,0.2,0.1v-0.4c-0.5-0.1-1-0.2-1.5-0.3v1.1h-0.1v0.4h0.1v3.9c1-0.6,2.1-0.9,3.4-1.1l0-0.4c-1.1,0.2-2.1,0.5-3.1,0.9
	L102.2,101L102.2,101z M102.2,99.9l0.6,0.1l0.1,0.7c-0.2-0.1-0.4-0.1-0.7-0.1V99.9L102.2,99.9z"/>
<path fill="#646464" d="M103.8,103v0.4c0.4-0.1,0.9-0.2,1.4-0.3l0.1-3.3c-0.5-0.2-0.9-0.4-1.5-0.5v0.4l0.2,0.1v3.4
	C103.9,102.9,103.8,103,103.8,103z M104.3,99.7c0.2,0.1,0.4,0.2,0.6,0.2l-0.1,2.8c-0.2,0-0.4,0.1-0.5,0.1V99.7L104.3,99.7z
	 M101.6,94.2L101.6,94.2L101.6,94.2c-0.2,0-0.2,0-0.3,0V94h0.2v-0.1h-0.2v-0.1c0.1,0,0.2,0,0.2,0v0.1h0.1v-0.2c-0.2,0-0.3,0-0.4,0
	v0.5h-0.1v0.1c0.2,0,0.3,0,0.5,0V94.2z M99.9,93.9C99.9,93.9,99.9,93.9,99.9,93.9l0.1-0.1c0,0,0.1,0,0.1,0v0.4h0v0.1
	c0.1,0,0.1,0,0.2,0v-0.1h-0.1v-0.4c0.2,0,0.3,0,0.5,0v-0.1c-0.3,0-0.5,0-0.8,0L99.9,93.9L99.9,93.9z"/>
<path fill="#646464" d="M100.8,94h-0.2v-0.1h-0.1v0.3h-0.1v0.1h0.2v-0.1h-0.1v-0.1h0.3v0.1h-0.1v0.1h0.2v-0.5h0.1v-0.1h-0.2v0.1h0.1
	V94H100.8L100.8,94z M97.9,95.9C97.8,95.9,97.8,95.9,97.9,95.9l-0.1-0.8c-0.6,0.2-1.1,0.4-1.6,0.6l0,0.4c0.1,0,0.2-0.1,0.3-0.1v2.9
	c-0.1,0-0.1,0.1-0.2,0.1l0,0.4c0.5-0.3,1.1-0.5,1.6-0.6L97.9,95.9L97.9,95.9z M96.8,95.8l0.7-0.3v0.5c-0.2,0.1-0.4,0.2-0.7,0.2V95.8
	z M97.5,98.5c-0.3,0.1-0.5,0.2-0.8,0.3v-2.1c0.2-0.1,0.5-0.2,0.8-0.3V98.5L97.5,98.5z"/>
<g>
	<polygon fill="#646464" points="9.6,94.5 12.8,94.5 12.8,102.1 	"/>
	<polygon fill="#646464" points="7.3,94.5 4.1,94.5 4.1,102.1 	"/>
	<polygon fill="#646464" points="8.5,97.3 10.5,102.1 9.1,102.1 8.5,100.6 7.1,100.6 	"/>
	<g>
		<path fill="#646464" d="M4.7,105.6l-0.1,0.7c0,0,0,0,0,0H4.2c0,0,0,0,0,0l0.6-2.4c0-0.1,0-0.1,0-0.2c0,0,0,0,0,0h0.6c0,0,0,0,0,0
			l0.7,2.6c0,0,0,0,0,0H5.5c0,0,0,0,0,0l-0.2-0.7L4.7,105.6L4.7,105.6z M5.2,105.2c-0.1-0.3-0.2-0.8-0.2-1.1l0,0
			c0,0.3-0.1,0.7-0.2,1.1H5.2z"/>
		<path fill="#646464" d="M6.1,105.3c0-0.6,0.4-1.1,0.9-1.1h0.1v-0.7c0,0,0,0,0,0h0.5c0,0,0,0,0,0v2.4c0,0.1,0,0.2,0,0.3
			c0,0,0,0,0,0c-0.2,0.1-0.4,0.2-0.6,0.2C6.4,106.3,6.1,106,6.1,105.3z M7.1,104.6C7.1,104.6,7,104.6,7.1,104.6
			c-0.3,0-0.5,0.2-0.5,0.6c0,0.5,0.2,0.6,0.4,0.6c0,0,0.1,0,0.1,0V104.6z"/>
		<path fill="#646464" d="M9.4,105.3c0,0.7-0.3,1.1-0.8,1.1c-0.5,0-0.8-0.5-0.8-1.1c0-0.6,0.3-1.1,0.8-1.1
			C9.1,104.2,9.4,104.6,9.4,105.3z M8.3,105.3c0,0.4,0.1,0.6,0.3,0.6c0.2,0,0.3-0.2,0.3-0.6c0-0.4-0.1-0.6-0.3-0.6
			C8.4,104.6,8.3,104.8,8.3,105.3z"/>
		<path fill="#646464" d="M10.1,103.5C10.1,103.5,10.1,103.5,10.1,103.5l0,0.8c0.1,0,0.1,0,0.2,0c0.4,0,0.8,0.3,0.8,1
			c0,0.8-0.4,1.2-1,1.2c-0.2,0-0.3,0-0.5-0.1c0,0,0,0,0,0v-2.8c0,0,0,0,0,0L10.1,103.5L10.1,103.5z M10.3,104.6c0,0-0.1,0-0.2,0v1.2
			c0,0,0.1,0,0.1,0c0.2,0,0.4-0.2,0.4-0.7C10.6,104.8,10.5,104.6,10.3,104.6z"/>
		<path fill="#646464" d="M11.8,105.4c0,0.3,0.1,0.5,0.5,0.5c0.1,0,0.2,0,0.3-0.1c0,0,0,0,0,0v0.4c0,0,0,0,0,0.1
			c-0.1,0.1-0.3,0.1-0.4,0.1c-0.6,0-0.8-0.5-0.8-1.1c0-0.6,0.3-1.1,0.8-1.1c0.5,0,0.7,0.5,0.7,0.8c0,0.1,0,0.3,0,0.3c0,0,0,0,0,0
			c0,0-0.2,0-0.4,0L11.8,105.4L11.8,105.4z M12.2,105c0.1,0,0.1,0,0.1,0c0,0,0,0,0,0c0-0.2-0.1-0.3-0.2-0.3c-0.2,0-0.2,0.2-0.3,0.4
			L12.2,105L12.2,105z"/>
	</g>
</g>
</svg>
