<?xml version="1.0" encoding="utf-8"?>
<!-- Generator: Adobe Illustrator 18.1.0, SVG Export Plug-In . SVG Version: 6.00 Build 0)  -->
<!DOCTYPE svg PUBLIC "-//W3C//DTD SVG 1.1//EN" "http://www.w3.org/Graphics/SVG/1.1/DTD/svg11.dtd">
<svg version="1.1" id="Layer_1" xmlns="http://www.w3.org/2000/svg" xmlns:xlink="http://www.w3.org/1999/xlink" x="0px" y="0px"
	 viewBox="0 98.1 200 11.2" enable-background="new 0 98.1 200 11.2" xml:space="preserve">
<g id="Layer_1_2_">
	<g id="Layer_2_1_">
		<path fill="#646464" d="M192.6,105.2c0.3,0.6,0.6,1.2,1,1.9c0,0.1,0.2,0.1,0.3,0.1c1.6,0,3,0,4.6,0h0.4c-0.3,0.5-0.6,0.9-0.8,1.5
			c-0.2,0.5-0.5,0.6-1,0.6c-1.5,0-2.8,0-4.3,0c-0.2,0-0.3,0-0.4-0.2c-0.2-0.4-0.4-0.8-0.7-1.1c0,0-0.1-0.1-0.1-0.2
			c-0.2,0.5-0.5,0.9-0.7,1.3c0,0.1-0.2,0.2-0.3,0.2c-0.9,0-2,0-2.9,0c-0.1,0-0.2-0.1-0.3-0.2c-0.5-0.9-1.1-1.9-1.7-2.8
			c-0.5-0.9-1.1-1.9-1.7-2.8c-0.2-0.3-0.3-0.5-0.5-0.8c0-0.1,0-0.3,0-0.4c0.3-0.6,0.7-1.1,1.1-1.8c0.2,0.3,0.3,0.6,0.5,0.8
			c0.5,0.8,1,1.8,1.5,2.6c0.6,1,1.1,2,1.8,3c0.1,0.2,0.2,0.2,0.4,0.2c0.6,0,1.2,0,1.9,0c0.4,0,0.5-0.1,0.7-0.4
			c0.3-0.5,0.5-1,0.8-1.6c0.4-0.8,0.8-1.7,1.3-2.5c0-0.1,0.1-0.1,0.1-0.2c0.5,0.8,1,1.8,1.6,2.7
			C194.3,105.2,193.5,105.2,192.6,105.2L192.6,105.2z"/>
		<path fill="#646464" d="M184.8,100.3c0.4-0.7,0.8-1.3,1.1-2c0.1-0.1,0.2-0.2,0.3-0.2c0.6,0,1.2,0,1.9,0c0.2,0,0.3,0.1,0.4,0.2
			c0.6,0.9,1.1,2,1.8,2.9c0.1,0.2,0.2,0.4,0.3,0.6c0.4-0.7,0.8-1.5,1.1-2.2c0.2-0.5,0.5-0.9,0.7-1.5c0-0.1,0.1-0.1,0.2-0.1
			c1,0,2.1,0,3.2,0c0.1,0,0.2,0.1,0.2,0.2c0.4,0.7,0.8,1.5,1.3,2.2l1.3,2.3c0.4,0.6,0.7,1.2,1.1,1.9c0.1,0.1,0.1,0.3,0,0.3
			c-0.3,0.6-0.6,1.2-1,1.9c-0.4-0.6-0.8-1.2-1.1-1.9c-0.4-0.7-0.8-1.3-1.2-2.1c-0.5-0.8-0.9-1.6-1.5-2.4c-0.1-0.1-0.2-0.2-0.3-0.2
			c-0.7,0-1.6,0-2.3,0c-0.2,0-0.3,0.1-0.4,0.3c-0.7,1.5-1.6,2.8-2.3,4.3c-0.3-0.5-0.6-1-0.9-1.6l-0.9-1.7c-0.2-0.4-0.5-0.8-0.7-1.2
			c-0.1-0.2-0.2-0.2-0.4-0.2C186.2,100.3,185.5,100.3,184.8,100.3L184.8,100.3z"/>
	</g>
</g>
<g id="Layer_2_2_">
	<path fill="#646464" d="M47.3,102.1c0,0,0.3-0.2,0.3-0.6c0,0,0-0.2,0-0.5c0,0,0-0.2-0.1-0.3c0,0-0.3,0-0.6,0.1c0,0-0.8,0.2-2.1,0.9
		c0,0-0.5,0.3-0.6,0.4c0,0-0.2,0.1,0,0.2c0,0,0.2,0,0.4,0h0.1c0,0-0.3,0.2-0.5,0.3c0,0-0.5,0.3-0.6,0.6c0,0-0.2,0.3-0.2,0.8
		c0,0,0,0.7,0.4,1.5c0,0,0.1,0.2,0.2,0.3c0,0,0.1,0.1,0.3,0.1c0,0,1.1,0.1,1.8-0.1c0,0,0.9-0.1,1-0.5c0,0,0-0.2,0-0.3c0,0,0,0,0.1,0
		c0,0,0.5-0.2,0.6-0.5c0,0,0-0.1,0.1-0.3V104c0,0,0-0.1-0.1,0c0,0-0.5,0.1-0.8,0.2c0,0-1.1,0.2-2.1,0.1c0,0-0.5,0-0.3-0.3
		c0,0,0.2-0.2,0.6-0.5c0,0,0.7-0.4,1.2-0.6C46.1,102.6,47,102.1,47.3,102.1L47.3,102.1z M50.7,106l-0.1-0.5
		c-0.1-0.5-0.1-0.9-0.1-0.9c0-0.3,0.1-0.8,0.1-0.8c0-0.2,0-0.2,0-0.2c-0.3-0.4-0.6-0.8-0.6-0.8c-0.1-0.1-0.2,0-0.2,0h-0.1
		c-0.1,0.1-0.2,0-0.2,0c-0.2-0.1-0.2,0-0.2,0c-0.1,0.1-0.5,0.4-0.5,0.4c-0.1,0.1,0,0.2,0,0.2v0.1c-0.1,0.1-0.5,0.8-0.5,0.8
		c-0.2,0.2-0.3,0.6-0.3,0.6c-0.1,0.2-0.1,0.8-0.1,0.8c0,0.2,0.2,0.3,0.2,0.3c0.1,0.2,0.3,0.1,0.3,0.1c0.1,0,0.5-0.4,0.5-0.4
		c0.1-0.1,0.6-0.5,0.6-0.5l0,0c0.1,0.2,0.5,0.8,0.5,0.8c0.1,0.1,0.1,0.1,0.1,0.1c0.1,0,0.1,0,0.1,0l0.3,0.1
		C50.8,106.2,50.7,106,50.7,106L50.7,106z M49.2,104.1c0,0-0.5,0.4-0.6,0.5c0,0-0.1,0.2-0.1,0c0,0,0-0.2,0.2-0.5
		c0,0,0.1-0.2,0.2-0.3c0,0,0.1,0,0.2,0.1C49.1,103.9,49.3,104,49.2,104.1z M52.8,100.8c0,0,0.1-0.1,0.2-0.1h0.2c0,0,0.1,0,0.1,0.2
		v0.5c0,0,0,0.1-0.1,0.4c0,0-0.1,0.2-0.1,0.3l-0.5,1.5v0.1c0,0,0.2,0.1,0.2,0.2c0,0,0,0,0.1,0c0,0,0.2-0.1,0.2,0.2
		c0,0,0,0.2-0.2,0.6c0,0,0.1,1.2,0.1,1.7c0,0,0,0.3,0,0.5c0,0,0,0.2-0.2,0.3c0,0-0.4,0.2-0.7,0.2c0,0-0.1,0-0.2-0.1
		c0,0-0.3-0.4-0.5-0.9c0,0-0.2-0.4-0.2-0.6c0,0-0.1-0.4-0.1-0.8c0,0,0-0.6,0.1-1c0,0,0.2-0.8,0.6-1.7c0,0,0.5-0.9,0.6-1.2
		C52.6,101.1,52.8,100.8,52.8,100.8L52.8,100.8z"/>
	<path fill="#646464" d="M52.5,106.1c0,0.2,0.1,0.3,0.1,0.3c0.1,0.1,0.2-0.2,0.2-0.2v-1c0-0.1-0.1-0.1-0.1-0.1h-0.1
		c-0.1,0-0.1,0.1-0.1,0.1C52.4,105.5,52.5,106.1,52.5,106.1L52.5,106.1z M55.9,104.8c0,0-0.3,0.1-0.6,0c0,0-0.2-0.1-0.3-0.2l0,0
		c0,0,0.8-0.7,1-1c0,0,0.2-0.3,0.2-0.6c0,0-0.1-0.2-0.6-0.3c0,0-0.3-0.1-0.6,0c0,0-0.1,0-0.2,0.1c0,0-0.5,0.3-0.9,1
		c0,0-0.3,0.4-0.3,1c0,0,0,0.3,0.2,0.6c0,0,0.3,0.4,0.8,0.5c0,0,0.5,0.1,0.9-0.1c0,0,0.2-0.1,0.2-0.3c0,0,0-0.1,0.1-0.2
		c0,0,0-0.1,0.1-0.1c0,0,0.2-0.1,0.2-0.2v-0.2C56.1,104.8,56.1,104.7,55.9,104.8L55.9,104.8z M54.7,104c0,0,0-0.2,0.2-0.4
		c0,0,0.1-0.2,0.2-0.3c0,0,0.2,0,0.3,0.1c0,0-0.1,0.1-0.3,0.4C55,103.8,54.7,104,54.7,104L54.7,104z M63,104.9
		c0-0.2-0.2-0.2-0.2-0.2c-0.2,0-0.5-0.1-0.5-0.1c-0.6-0.2-1.3-0.7-1.3-0.7c-0.4-0.2-0.6-0.6-0.6-0.6c0.3,0,1.2-0.1,1.2-0.1
		c0.4,0,0.8-0.1,0.8-0.1c0.6-0.1,0.5-0.5,0.5-0.5c0-0.2-0.1-0.6-0.1-0.6c-0.1-0.1-0.1-0.4-0.1-0.4c-0.1-0.3-0.5-0.5-0.5-0.5
		c-0.5-0.2-1.2-0.4-1.2-0.4c-0.4-0.1-0.9-0.1-0.9-0.1c-0.1,0-0.3,0.1-0.3,0.1l-0.5,0.1c-0.2,0.1-0.4,0.1-0.4,0.1
		c-0.2,0-0.2,0.2-0.2,0.2c0,0.1,0,0.3,0,0.3c0,0.2,0.2,0.2,0.2,0.1H59c0.1,0,0.1,0.1,0.1,0.1L59,102c-0.1,0.5-0.2,1-0.2,1.7l0,0
		c-0.1,0.6,0.1,1.5,0.1,1.5c0.1,0.2,0.2,0.3,0.2,0.3c0.1,0.1,0.3,0.2,0.3,0.2c0.3,0.2,0.3-0.1,0.3-0.1l0.1-0.6c0-0.2,0-0.2,0-0.2
		c0.3,0.2,1,0.6,1,0.6c0.5,0.3,1,0.3,1,0.3c0.2,0,0.2,0,0.2,0c0.2-0.2,0.5-0.4,0.5-0.4c0.1-0.1,0.3-0.1,0.3-0.1
		C63.1,105.1,63,104.9,63,104.9L63,104.9z M60.2,102c0.1,0,0.3,0,0.4,0c0.5,0.1,1.1,0.2,1.1,0.2c0.1,0.1,0.1,0.1,0.1,0.1
		c0,0.1-0.5,0.2-0.5,0.2c-0.5,0.2-1.3,0.3-1.3,0.3C60.2,102.6,60.2,102,60.2,102L60.2,102z M63.9,102.3l0.5-0.6c0,0,0.1-0.1,0.2-0.1
		l0.5-0.2c0,0,0.1-0.1,0.2,0.1l0.1,0.3c0,0,0.1,0.1-0.1,0.3l-0.8,0.6c0,0-0.1,0.1-0.3,0l-0.3-0.2C63.9,102.6,63.8,102.4,63.9,102.3z
		 M64.7,103.2c0,0,0.2-0.1,0.3-0.1c0,0,0,0,0.1,0.1c0,0,0.1,0.1,0.1,0.3c0,0-0.1,0.7-0.2,1.1c0,0-0.2,0.9-0.2,1c0,0-0.1,0.3-0.4,0.2
		c0,0-0.2-0.1-0.4-0.2c0,0-0.1-0.1-0.2-0.2c0,0-0.1-0.3-0.1-0.4c0,0,0-0.1-0.1-0.1h-0.1c0,0-0.1,0-0.1-0.2c0,0,0-0.3,0-0.4
		c0,0,0-0.2,0.2-0.4C63.6,104,63.9,103.6,64.7,103.2z M68,103.2c-0.5-0.5-0.9-0.5-0.9-0.5c-0.4-0.1-0.6,0.1-0.6,0.1l-0.6,0.6
		c-0.1,0.1,0,0.2,0,0.2c0.1,0.1,0,0.3,0,0.3c-0.1,0.3-0.1,0.9-0.1,0.9c0,0.3,0,0.8,0,0.8c0,0.2,0.2,0.3,0.2,0.3
		c0.3,0.2,0.7-0.1,0.7-0.1c0.5-0.3,0.7-0.6,0.7-0.6c0.5-0.8,0.6-1.3,0.6-1.3C68.2,103.4,68,103.2,68,103.2L68,103.2z M67,104.3
		c0,0-0.3,0.3-0.4,0.2c0,0-0.1-0.1,0-0.5v-0.1C66.5,104,66.9,104.1,67,104.3C67,104.2,67,104.3,67,104.3L67,104.3z"/>
</g>
<path fill-rule="evenodd" clip-rule="evenodd" fill="#646464" d="M9.9,102.1c0-2.2-1.8-4-3.9-4H0l9.9,11.1V102.1L9.9,102.1z"/>
<path fill-rule="evenodd" clip-rule="evenodd" fill="#646464" d="M10.8,102.1c0-2.2,1.8-4,3.9-4h6l-9.9,11.1V102.1L10.8,102.1z"/>
<g>
	<path fill="#646464" d="M103.5,103.9c0.3,0.2,0.6,0.4,0.9,0.6c1.2,1.3,0.9,3.5-0.7,4.3c-0.4,0.2-0.9,0.4-1.4,0.4c-1,0-2,0-3.1,0
		c-0.9,0-1.8,0-2.7,0c-0.1,0-0.1,0-0.1-0.1c0-1.8,0-3.6,0-5.4c0-0.1,0-0.1,0.1-0.1c0.3,0,0.5,0,0.8,0c0.1,0,0.1,0,0.1-0.1
		c-0.5-1.1-1-2.2-1.5-3.2c-0.3-0.6-0.5-1.2-0.8-1.7c0-0.1,0-0.1,0.1-0.1c0.6,0,1.2,0,1.8,0c0.1,0,0.1,0,0.1-0.1c0-0.1,0-0.1,0-0.2
		c0-0.1,0-0.1-0.1-0.1c0,0-0.1,0-0.1,0c-0.1,0-0.1,0-0.1-0.1c0,0,0-0.1,0.1-0.1c0.2,0,0.4,0,0.6,0c0.1,0,0.1,0,0.1,0.1
		c0,0,0,0.1-0.1,0.1c-0.1,0-0.1,0-0.1,0.1c0,0.2,0,0.2,0.2,0.2c0.1,0,0.1,0,0.1-0.1c0-0.1,0-0.3,0-0.4c0-0.1,0-0.1,0.1-0.1
		c0,0,0.1,0,0.1,0c0.2,0,0.2,0,0.2,0.2c0,0,0,0.1,0.1,0.1c0,0,0.1,0,0.1,0c0.1,0,0.1,0,0.1-0.1c0-0.1,0-0.1,0.1-0.1
		c0.2,0,0.2,0,0.2,0.2c0,0.1,0,0.2,0,0.3c0,0.1,0,0.1,0.1,0.1c0,0,0,0,0.1,0c0.1,0,0.1,0,0.1-0.1c0-0.1,0-0.2,0-0.4
		c0-0.1,0-0.1,0.1-0.1c0.2,0,0.4,0,0.7,0c0.1,0,0.1,0,0.1,0.1c0,0.1,0,0.1-0.1,0.1c-0.1,0-0.2,0-0.3,0c0,0-0.1,0-0.1,0.1
		c0,0,0,0.1,0.1,0.1c0.1,0,0.2,0,0.3,0c0,0,0.1,0,0.1,0.1c0,0,0,0.1-0.1,0.1c-0.1,0-0.2,0-0.4,0c0,0,0,0,0,0.1c0,0,0,0,0,0
		c0.3,0,0.5,0.1,0.8,0.1c0.8,0,1.7,0,2.5,0c1.3,0,2.5,1,2.7,2.3C105.3,102.1,104.7,103.3,103.5,103.9
		C103.5,103.9,103.5,103.9,103.5,103.9z"/>
	<path fill="#FFFFFF" d="M99.9,106.5c0-0.6,0-1.3,0-1.9c0-0.1,0-0.1,0.1-0.1c0.7,0,1.5,0,2.2,0c0.9,0,1.7,0.6,2,1.4
		c0.3,0.9-0.1,1.8-0.9,2.3c-0.3,0.2-0.7,0.3-1.1,0.3c-0.7,0-1.5,0-2.2,0c-0.1,0-0.1,0-0.1-0.1C99.9,107.7,99.9,107.1,99.9,106.5z"/>
	<path fill="#FFFFFF" d="M102.2,103.4c-1.1,0-2-0.9-2-2.1c0-1.1,0.9-2,2-2c1.1,0,2,0.9,2,2C104.3,102.5,103.4,103.4,102.2,103.4z"/>
	<path fill="#FFFFFF" d="M98.1,103.5c-0.1-0.3-0.3-0.6-0.4-0.9c-0.5-1-1-2.1-1.5-3.1c0,0,0,0,0-0.1c0,0,0-0.1,0-0.1c0,0,0,0,0,0
		c1.2,0,2.4,0,3.7,0c0.1,0,0.1,0,0.1,0.1C99.4,100.7,98.7,102.1,98.1,103.5C98.1,103.4,98.1,103.4,98.1,103.5z"/>
	<path fill="#FFFFFF" d="M99.1,106.5c0,0.6,0,1.3,0,1.9c0,0.1,0,0.1-0.1,0.1c-0.6,0-1.2,0-1.8,0c-0.1,0-0.1,0-0.1-0.1
		c0-1.3,0-2.5,0-3.8c0-0.1,0-0.1,0.1-0.1c0.6,0,1.2,0,1.8,0c0.1,0,0.1,0,0.1,0.1C99.1,105.2,99.1,105.8,99.1,106.5z"/>
	<path fill="#FFFFFF" d="M99.5,102.3c0.2,0.6,0.5,1,1,1.4c0,0-0.1,0-0.1,0c-0.4,0-0.9,0-1.3,0c0,0,0,0-0.1,0c-0.2,0-0.2,0-0.1-0.2
		C99.2,103.1,99.3,102.7,99.5,102.3C99.5,102.3,99.5,102.3,99.5,102.3z"/>
	<path fill="#FFFFFF" d="M98,98.3c0.1,0,0.1,0,0.1,0.1c0,0,0,0.1-0.1,0.1c0,0-0.1,0-0.1,0c-0.1,0-0.1,0-0.1-0.1
		C97.8,98.3,97.8,98.3,98,98.3z"/>
</g>
<path fill="#646464" d="M131.6,105.9c-0.2,0.1-0.5,0.1-0.8,0.1c-1.4,0-2.1-1.2-2.1-2.7c0-2.1,1.2-2.9,2.2-2.9c0.4,0,0.6,0.1,0.7,0.1
	l-0.2,0.9c-0.1-0.1-0.3-0.1-0.5-0.1c-0.6,0-1.2,0.5-1.2,1.9c0,1.3,0.5,1.8,1.2,1.8c0.2,0,0.4,0,0.5-0.1L131.6,105.9z"/>
<path fill="#646464" d="M133.4,100.9c0,0.3-0.2,0.6-0.6,0.6c-0.3,0-0.5-0.2-0.5-0.6c0-0.4,0.3-0.6,0.5-0.6
	C133.1,100.4,133.4,100.6,133.4,100.9 M132.3,102h1.1v4h-1.1V102z"/>
<path fill="#646464" d="M135.5,101v1h0.8v0.8h-0.8v1.8c0,0.5,0.2,0.6,0.4,0.6c0.1,0,0.2,0,0.3,0l0,0.8c-0.1,0-0.4,0.1-0.7,0.1
	c-0.3,0-0.6-0.1-0.8-0.3c-0.2-0.2-0.3-0.5-0.3-1.1v-1.9H134V102h0.5v-0.7L135.5,101z"/>
<path fill="#646464" d="M137.7,102c0,0,0.6,2.1,0.6,2.3l0.5-2.3l1,0l-0.8,3.1c-0.2,0.8-0.5,1.5-0.9,2c-0.3,0.4-0.7,0.6-0.9,0.6
	l-0.3-0.9c0.2-0.1,0.4-0.2,0.5-0.3c0.1-0.1,0.3-0.3,0.3-0.5c0-0.1,0.1-0.1,0.1-0.2c0,0,0-0.1,0-0.1l-1.1-3.7L137.7,102z"/>
<path fill="#646464" d="M141.3,102c0,0,0.5,2.1,0.5,2.4l0.5-2.4l1,0c0,0,0.4,2.1,0.5,2.5l0.6-2.4l0.9,0l-1,4h-0.9l-0.3-1.4
	c-0.1-0.4-0.2-0.8-0.2-1.3h0c-0.1,0.5-0.1,0.9-0.2,1.3l-0.3,1.4h-0.9l-1-4L141.3,102z"/>
<path fill="#646464" d="M148.7,104c0,1.7-0.9,2.1-1.5,2.1c-1,0-1.5-0.8-1.5-2.1c0-1.4,0.8-2.1,1.6-2.1
	C148.1,101.9,148.7,102.7,148.7,104 M146.7,104c0,0.7,0.1,1.3,0.5,1.3c0.4,0,0.4-0.7,0.4-1.3c0-0.5-0.1-1.2-0.5-1.2
	C146.7,102.7,146.7,103.4,146.7,104"/>
<path fill="#646464" d="M149.4,103.2c0-0.4,0-0.8,0-1.2h0.9l0.1,0.6h0c0.2-0.4,0.5-0.7,0.8-0.7c0.1,0,0.2,0,0.2,0v1.1
	c-0.1,0-0.1,0-0.2,0c-0.2,0-0.5,0.2-0.6,0.6c0,0.1,0,0.2,0,0.4v2h-1.1V103.2z"/>
<path fill="#646464" d="M153.1,103.8L153.1,103.8c0.1-0.2,0.1-0.4,0.2-0.6l0.5-1.2h1.2l-1,1.7l1,2.3h-1.2l-0.6-1.6l-0.2,0.3v1.3H152
	v-5.7h1.1V103.8z"/>
<path fill="#646464" d="M155.5,105c0.2,0.1,0.5,0.2,0.7,0.2c0.3,0,0.4-0.1,0.4-0.4c0-0.2-0.1-0.3-0.5-0.5c-0.6-0.4-0.8-0.8-0.8-1.2
	c0-0.7,0.5-1.3,1.3-1.3c0.3,0,0.6,0.1,0.8,0.2l-0.2,0.8c-0.2-0.1-0.3-0.2-0.6-0.2c-0.3,0-0.4,0.2-0.4,0.3c0,0.2,0.1,0.3,0.5,0.5
	c0.6,0.3,0.8,0.8,0.8,1.2c0,0.8-0.6,1.3-1.4,1.3c-0.3,0-0.7-0.1-0.9-0.2L155.5,105z"/>
</svg>
