<?xml version="1.0" encoding="utf-8"?>
<!-- Generator: Adobe Illustrator 18.1.0, SVG Export Plug-In . SVG Version: 6.00 Build 0)  -->
<!DOCTYPE svg PUBLIC "-//W3C//DTD SVG 1.1//EN" "http://www.w3.org/Graphics/SVG/1.1/DTD/svg11.dtd">
<svg version="1.1" id="Layer_1" xmlns="http://www.w3.org/2000/svg" xmlns:xlink="http://www.w3.org/1999/xlink" x="0px" y="0px"
	 viewBox="0 0 200 181.4" enable-background="new 0 0 200 181.4" xml:space="preserve">
<rect x="32.6" y="20.1" fill="#3D3D3D" width="113.2" height="141.4"/>
<path fill="#34DDB6" d="M103.8,75.3V46.5c0-3.2-3-5.9-6.5-5.9h-4.7v40.8h4.7C100.9,81.3,103.8,78.6,103.8,75.3 M134.3,134.5v-28.9
	c0-3.2-2.9-5.9-6.4-5.9h-4.7v40.3h4.7C131.4,140.1,134.3,137.7,134.3,134.5 M139.5,134.5c0,6-5.2,10.7-11.6,10.7h-9.4
	c-0.4,0-0.5-0.1-0.5-0.5V95.4c0-0.4,0.1-0.8,0.5-0.8h9.4c6.4,0,11.6,5,11.6,11V134.5z M138.2,85.6c0,0.4-0.1,0.9-0.5,0.9h-17.6
	c-0.4,0-0.8-0.5-0.8-0.9V36.2c0-0.4,0.5-0.4,0.8-0.4h16.9c0.4,0,0.7,0.1,0.7,0.4V40c0,0.4-0.3,0.5-0.7,0.5h-12.2v17.6h8.8
	c0.4,0,0.6,0.5,0.6,0.9v3.9c0,0.4-0.3,0.8-0.6,0.8h-8.8v17.6h12.8c0.4,0,0.5,0.1,0.5,0.5V85.6z M112.8,144.7c0,0.4-0.3,0.5-0.7,0.5
	H94.6c-0.4,0-0.6-0.1-0.6-0.5V95.4c0-0.4,0.3-0.8,0.6-0.8h16.9c0.4,0,0.4,0.4,0.4,0.8v3.8c0,0.4-0.1,0.6-0.4,0.6H99.1v17.6h9.1
	c0.4,0,0.8,0.4,0.8,0.8v3.9c0,0.4-0.5,0.5-0.8,0.5h-9.1v17.6h13.1c0.4,0,0.7,0.5,0.7,0.8V144.7z M109,75.3c0,6-5.2,11.1-11.6,11.1
	H88c-0.4,0-0.8-0.5-0.8-0.9V36.2c0-0.4,0.5-0.4,0.8-0.4h9.4c6.4,0,11.6,4.7,11.6,10.7V75.3z M83.4,94.6h4.1c0.4,0,0.5,0.4,0.5,0.8
	v49.3c0,0.4-0.1,0.5-0.5,0.5h-4.1c-0.4,0-0.6-0.1-0.6-0.5v-22.2H71.7v22.2c0,0.4-0.1,0.5-0.5,0.5h-4.1c-0.4,0-0.6-0.1-0.6-0.5V95.4
	c0-0.4,0.2-0.8,0.6-0.8h4.1c0.4,0,0.5,0.4,0.5,0.8v22h11.2v-22C82.8,95,83,94.6,83.4,94.6 M76.4,85.8c0,0.4-0.3,0.6-0.6,0.6h-4.3
	c-0.4,0-0.6-0.3-0.6-0.6V36.4c0-0.4,0.3-0.6,0.6-0.6h4.3c0.4,0,0.6,0.3,0.6,0.6V85.8z M60.9,135.9c0,5.6-4.7,10.1-10.7,10.1
	c-6,0-10.7-4.6-10.7-10.1v-7.2c0-0.3,0.2-0.6,0.5-0.6l4-0.4c0.2,0,0.3,0,0.4,0.2c0.1,0.1,0.1,0.3,0.1,0.5v7.7c0,2.8,2.6,5.1,5.6,5.1
	c3,0,5.6-2.3,5.6-5.1v-4.7c0-1.8-1.3-3.4-1.3-3.4L42,114l0,0c-0.1-0.1-2.5-2.9-2.5-6.6v-3.3c0-5.6,4.7-10.1,10.7-10.1
	c6,0,10.7,4.6,10.7,10.1v6.1c0,0.3-0.1,0.6-0.5,0.6l-4,0.4c-0.2,0-0.4,0-0.5-0.2c-0.1-0.1-0.2-0.3-0.2-0.5v-6.6
	c0-2.8-2.6-5.1-5.6-5.1c-3,0-5.6,2.3-5.6,5.1v3.3c0,1.8,1.3,3.2,1.3,3.2l12.5,13.8c0.1,0.1,2.5,2.9,2.5,6.7V135.9z M60.9,76.8
	c0,5.6-4.7,10.1-10.7,10.1c-6,0-10.7-4.6-10.7-10.1v-7.2c0-0.3,0.2-0.6,0.5-0.6l4-0.4c0.2,0,0.3,0,0.4,0.2c0.1,0.1,0.1,0.3,0.1,0.5
	v7.7c0,2.8,2.6,5.1,5.6,5.1c3,0,5.6-2.3,5.6-5.1v-4.8c0-1.9-1.3-3.4-1.3-3.4L42,54.9l0,0c-0.1-0.1-2.5-2.9-2.5-6.6V45
	c0-5.6,4.7-10.1,10.7-10.1c6,0,10.7,4.6,10.7,10.1v6.1c0,0.3-0.1,0.6-0.5,0.6l-4,0.4c-0.2,0-0.4,0-0.5-0.2c-0.1-0.1-0.2-0.3-0.2-0.5
	V45c0-2.8-2.6-5.1-5.6-5.1c-3,0-5.6,2.3-5.6,5.1v3.3c0,1.8,1.3,3.2,1.3,3.2l12.5,13.8c0.1,0.1,2.5,2.9,2.5,6.7V76.8z M199.3,90.9
	c0-3.7-30.7-75.5-30.7-75.5C165,8.1,165,2.5,153.9,0H0.3v181.7h153.5c11.1-2.5,11.1-7.9,14.7-15.1
	C168.6,166.6,199.3,94.6,199.3,90.9"/>
</svg>
